<?xml version="1.0" encoding="UTF-8"?> <svg xmlns="http://www.w3.org/2000/svg" id="_Слой_1" data-name="Слой 1" viewBox="0 0 973.95 207.66"><defs><style> .cls-1 { fill: #1c1c1c; } </style></defs><path class="cls-1" d="M118.83,95.94c.56,.4,.88,.92,.96,1.56,.08,.64-.04,1.2-.36,1.68-.48,.64-1.12,.96-1.92,.96-.32,0-.64-.08-.96-.24-1.6-.32-9.52-.72-23.76-1.2-3.92,16.4-7.08,30.28-9.48,41.64-4.88,22.64-7.32,37.16-7.32,43.56,.32-.56,.68-1.16,1.08-1.8,.32-.56,.8-.92,1.44-1.08,.64-.16,1.22-.08,1.74,.24,.52,.32,.86,.78,1.02,1.38,.16,.6,.08,1.18-.24,1.74-2.32,3.92-4.32,5.88-6,5.88-.4,0-.8-.08-1.2-.24-.96-.4-1.62-1.26-1.98-2.58-.36-1.32-.44-3.84-.24-7.56,.2-3.72,.9-8.86,2.1-15.42,1.2-6.56,2.98-15.26,5.34-26.1,2.36-10.84,5.38-24.1,9.06-39.78-5.44-.16-13.56-.36-24.36-.6-1.6-.08-3.4-.12-5.4-.12-12.08,22.96-21.44,39-28.08,48.12-1.76,2.32-3.52,4.12-5.28,5.4-1.76,1.28-3.4,2.02-4.92,2.22-1.52,.2-2.8,.18-3.84-.06-1.04-.24-2.04-.64-3-1.2-4.16-2.4-7.46-7.26-9.9-14.58C.89,130.44-.21,122.32,.03,113.4s1.8-16.7,4.68-23.34c3.6-8.16,8.86-13.64,15.78-16.44,6.92-2.8,15.06-2.72,24.42,.24,.64,.16,1.1,.52,1.38,1.08,.28,.56,.32,1.14,.12,1.74-.2,.6-.58,1.06-1.14,1.38-.56,.32-1.16,.36-1.8,.12-3.12-.96-6.16-1.56-9.12-1.8-2.96-.24-6.06-.02-9.3,.66-3.24,.68-6.26,2.28-9.06,4.8-2.8,2.52-5.16,5.9-7.08,10.14-1.44,3.28-2.52,6.92-3.24,10.92-.72,4-1.08,7.92-1.08,11.76s.28,7.62,.84,11.34c.56,3.72,1.34,7.08,2.34,10.08,1,3,2.16,5.58,3.48,7.74,1.32,2.16,2.74,3.68,4.26,4.56,3.36,1.92,7.04,.2,11.04-5.16,6.4-8.64,15.28-23.8,26.64-45.48-20.8-.56-32.16-1.04-34.08-1.44-.64-.16-1.14-.5-1.5-1.02-.36-.52-.48-1.1-.36-1.74,.12-.64,.46-1.12,1.02-1.44,.56-.32,1.12-.44,1.68-.36,1.76,.4,13.64,.88,35.64,1.44,3.52-6.88,8.84-17.28,15.96-31.2,4.64-9.28,8.44-16.8,11.4-22.56,2.96-5.76,5.86-11.24,8.7-16.44,2.84-5.2,5.1-9.14,6.78-11.82,1.68-2.68,3.28-5,4.8-6.96,1.52-1.96,2.78-3.2,3.78-3.72,1-.52,1.98-.62,2.94-.3,1.28,.48,2.1,1.56,2.46,3.24,.36,1.68,.38,4,.06,6.96-.48,5.2-1.88,12.96-4.2,23.28-.96,4.56-3.4,14.88-7.32,30.96-3.04,12.64-5.4,22.48-7.08,29.52,15.6,.48,23.92,1.08,24.96,1.8Zm-54.96-2.64c10.48,.32,18.92,.56,25.32,.72,2.16-9.28,4.56-19.44,7.2-30.48,3.92-16,6.4-26.28,7.44-30.84,3.12-14.16,4.52-23.24,4.2-27.24-1.28,1.28-3.06,3.78-5.34,7.5-2.28,3.72-5.16,8.86-8.64,15.42-3.48,6.56-6.38,12.1-8.7,16.62-2.32,4.52-5.56,10.86-9.72,19.02-6.56,12.96-11.52,22.72-14.88,29.28h3.12Z"></path><path class="cls-1" d="M161.19,8.1c1.68,2.48,.86,8.34-2.46,17.58-3.32,9.24-8.7,19.78-16.14,31.62-.08,.08-.16,.16-.24,.24-5.04,20.16-9.86,41.18-14.46,63.06-4.6,21.88-7.54,37.46-8.82,46.74h.24c.64,.24,1.1,.64,1.38,1.2,.28,.56,.3,1.16,.06,1.8-.48,1.36-.86,2.38-1.14,3.06-.28,.68-.7,1.34-1.26,1.98-.56,.64-1.16,.96-1.8,.96-.24,0-.52-.04-.84-.12-1.12-.4-1.72-1.5-1.8-3.3-.08-1.8,.48-6.22,1.68-13.26,1.44-8.64,3.6-19.92,6.48-33.84,6.64-31.68,13.24-59.92,19.8-84.72,.56-2.08,1.16-4.26,1.8-6.54,.64-2.28,1.56-5.14,2.76-8.58,1.2-3.44,2.38-6.46,3.54-9.06,1.16-2.6,2.46-4.92,3.9-6.96s2.8-3.14,4.08-3.3c1.36-.24,2.44,.24,3.24,1.44Zm-14.64,33.36c6.4-12.08,10-21.56,10.8-28.44-3.52,5.28-7.12,14.76-10.8,28.44Z"></path><path class="cls-1" d="M183.03,93.36c.64-.12,1.22,0,1.74,.36,.52,.36,.82,.86,.9,1.5,.08,.64-.04,1.2-.36,1.68-9.04,12.64-17.28,21.6-24.72,26.88-2.96,2.08-5.88,3.12-8.76,3.12-2.24,0-4.2-.6-5.88-1.8-.96-.72-1.82-1.68-2.58-2.88-.76-1.2-1.42-2.88-1.98-5.04-.56-2.16-.66-5-.3-8.52,.36-3.52,1.26-7.52,2.7-12v-.12c2.24-7.28,4.96-13.04,8.16-17.28,3.2-4.24,6.08-6.4,8.64-6.48,1.84-.08,3.04,.72,3.6,2.4,.88,2.32-.16,5.6-3.12,9.84-2.96,4.24-7.32,8.8-13.08,13.68-.96,3.12-1.64,6-2.04,8.64-.4,2.64-.54,4.74-.42,6.3s.4,2.92,.84,4.08c.44,1.16,.84,1.98,1.2,2.46s.74,.88,1.14,1.2c2.4,1.76,5.48,1.28,9.24-1.44,7.04-4.96,14.88-13.52,23.52-25.68,.4-.48,.92-.78,1.56-.9Zm-23.28-15.54c-2.8,1.76-5.56,5.56-8.28,11.4,4.64-4.64,7.4-8.44,8.28-11.4Z"></path><path class="cls-1" d="M208.23,82.74c.64,.16,1.12,.5,1.44,1.02,.32,.52,.4,1.1,.24,1.74-.16,.64-.52,1.12-1.08,1.44-5.36,3.28-11.48,9.56-18.36,18.84,1.52,3.28,3.08,6.04,4.68,8.28,1.6,2.24,3.08,3.6,4.44,4.08,.96,.32,1.88-.2,2.76-1.56,.32-.56,.8-.9,1.44-1.02,.64-.12,1.22,0,1.74,.36,.52,.36,.84,.86,.96,1.5,.12,.64,.02,1.2-.3,1.68-1.68,2.48-3.68,3.72-6,3.72-.64,0-1.28-.08-1.92-.24-3.52-1.2-7.12-5.36-10.8-12.48-4.8,6.8-9.64,14.76-14.52,23.88-.48,.8-1.16,1.2-2.04,1.2-.4,0-.76-.12-1.08-.36-.56-.24-.94-.68-1.14-1.32-.2-.64-.14-1.24,.18-1.8,5.52-10.16,10.96-19,16.32-26.52-3.36-7.68-4.96-13.48-4.8-17.4,0-.64,.24-1.18,.72-1.62,.48-.44,1.04-.64,1.68-.6,.64,.04,1.18,.3,1.62,.78,.44,.48,.66,1.04,.66,1.68-.16,2.56,.92,6.84,3.24,12.84,6.56-8.64,12.6-14.6,18.12-17.88,.56-.32,1.16-.4,1.8-.24Z"></path><path class="cls-1" d="M260.01,93.72c.6-.2,1.18-.16,1.74,.12,.56,.28,.94,.72,1.14,1.32,.2,.6,.18,1.18-.06,1.74-8.56,17.68-16.2,26.52-22.92,26.52-.4,0-.84-.04-1.32-.12-5.36-1.04-8.68-8.24-9.96-21.6-3.92,5.28-7.4,9.6-10.44,12.96-2.72,2.88-5.04,3.88-6.96,3-1.92-.72-2.84-2.8-2.76-6.24,0-2.88,.64-6.32,1.92-10.32,1.28-4,3.16-7.88,5.64-11.64,2.48-3.76,5.16-6.12,8.04-7.08,4.24-1.52,8.16-.12,11.76,4.2,.4,.48,.58,1.04,.54,1.68-.04,.64-.3,1.16-.78,1.56-.48,.4-1.04,.58-1.68,.54-.64-.04-1.16-.3-1.56-.78-2.8-3.36-5.64-4-8.52-1.92-3.28,2.32-6.02,6.5-8.22,12.54-2.2,6.04-3.06,10.34-2.58,12.9,.48-.4,1.04-.92,1.68-1.56,3.2-3.44,7.12-8.36,11.76-14.76,1.04-1.44,1.76-2.44,2.16-3,.64-.8,1.48-1.06,2.52-.78,1.04,.28,1.6,.98,1.68,2.1,.16,3.92,.48,7.4,.96,10.44,.48,3.04,.96,5.34,1.44,6.9s1.04,2.86,1.68,3.9c.64,1.04,1.14,1.7,1.5,1.98,.36,.28,.74,.42,1.14,.42,1.12,.24,2.54-.3,4.26-1.62,1.72-1.32,3.92-3.88,6.6-7.68,2.68-3.8,5.42-8.62,8.22-14.46,.32-.64,.78-1.06,1.38-1.26Z"></path><path class="cls-1" d="M304.11,93.54c.64-.16,1.24-.08,1.8,.24,.56,.32,.92,.78,1.08,1.38,.16,.6,.08,1.18-.24,1.74-2.72,4.8-5.08,8.6-7.08,11.4-2,2.8-4.04,5-6.12,6.6-2.08,1.6-4.12,2.28-6.12,2.04-4-.48-7.16-4.8-9.48-12.96-1.68-5.52-3.12-8.28-4.32-8.28-.24-.08-.58,.02-1.02,.3-.44,.28-1.14,1-2.1,2.16-.96,1.16-2.02,2.74-3.18,4.74-1.16,2-2.68,4.96-4.56,8.88-1.88,3.92-3.9,8.56-6.06,13.92-.4,.96-1.12,1.44-2.16,1.44-.16,0-.32-.04-.48-.12-1.36-.32-1.96-1.16-1.8-2.52,.8-6.56,3.8-18.76,9-36.6,.56-1.84,.96-3.24,1.2-4.2,.24-.64,.64-1.1,1.2-1.38,.56-.28,1.14-.34,1.74-.18,.6,.16,1.06,.52,1.38,1.08,.32,.56,.36,1.16,.12,1.8-.16,.56-.56,1.96-1.2,4.2-1.76,6.16-3.12,10.96-4.08,14.4,2.56-4.8,4.8-8.12,6.72-9.96,1.92-1.84,3.76-2.72,5.52-2.64,2.08,.08,3.74,1.16,4.98,3.24,1.24,2.08,2.42,4.92,3.54,8.52,1.76,6.16,3.64,9.36,5.64,9.6,.96,.16,2.14-.38,3.54-1.62,1.4-1.24,2.9-3.04,4.5-5.4,1.6-2.36,2.82-4.22,3.66-5.58,.84-1.36,1.82-3.08,2.94-5.16,.32-.56,.8-.92,1.44-1.08Z"></path><path class="cls-1" d="M351.63,20.34c2.08,2.08,1.04,9.44-3.12,22.08-.32,.96-.76,2.28-1.32,3.96-1.76,5.36-3.2,9.64-4.32,12.84-1.12,3.2-2.88,7.68-5.28,13.44-2.4,5.76-5,11.28-7.8,16.56-2.32,11.04-4.52,22.8-6.6,35.28-3.6,21.36-5.52,35.84-5.76,43.44,.64-.24,1.28-.24,1.92,0,.56,.32,.94,.78,1.14,1.38,.2,.6,.18,1.18-.06,1.74-1.44,3.04-2.88,4.56-4.32,4.56-.32,0-.64-.04-.96-.12-.88-.32-1.5-.9-1.86-1.74-.36-.84-.52-2.6-.48-5.28,.04-2.68,.38-6.62,1.02-11.82,.96-8.32,2.56-19.28,4.8-32.88,1.28-7.44,2.6-14.68,3.96-21.72-2.48,4-5.12,8-7.92,12-5.28,7.68-9.88,10.44-13.8,8.28-2.56-1.84-3.8-5.1-3.72-9.78,.08-4.68,1.24-9.42,3.48-14.22,2.64-5.6,5.76-9.72,9.36-12.36,3.6-2.64,6.8-3.54,9.6-2.7,2.8,.84,4.4,2.94,4.8,6.3,.4-.64,.76-1.28,1.08-1.92,4.24-20.08,8.5-36.22,12.78-48.42,4.28-12.2,7.78-18.74,10.5-19.62,1.12-.4,2.08-.16,2.88,.72Zm-40.68,91.08c3.76-5.44,7.2-10.88,10.32-16.32-1.2-.4-1.68-1.2-1.44-2.4,.32-2.96-.2-4.64-1.56-5.04h-.72c-1.68,0-3.74,1.1-6.18,3.3-2.44,2.2-4.62,5.34-6.54,9.42-1.28,2.64-2.14,5.34-2.58,8.1-.44,2.76-.54,5-.3,6.72,.24,1.72,.68,2.74,1.32,3.06,.24,.16,.62,.14,1.14-.06,.52-.2,1.38-.88,2.58-2.04,1.2-1.16,2.52-2.74,3.96-4.74Zm33.12-70.44c1.6-4.88,2.76-9.04,3.48-12.48-3.92,8.24-8.12,21.08-12.6,38.52,2.24-5.44,4.84-12.76,7.8-21.96,.56-1.76,1-3.12,1.32-4.08Z"></path><path class="cls-1" d="M388.88,93.24c.6-.2,1.18-.16,1.74,.12,.56,.28,.96,.72,1.2,1.32s.2,1.18-.12,1.74c-2.16,4.64-4.6,9.4-7.32,14.28-2.72,4.88-5.7,9.82-8.94,14.82-3.24,5-6.46,9.08-9.66,12.24-3.2,3.16-5.92,4.74-8.16,4.74-.56,0-1.08-.12-1.56-.36-3.28-1.28-4.32-6.24-3.12-14.88,1.12-8.08,4.08-19.52,8.88-34.32-.08,0-.14,.02-.18,.06-.04,.04-.1,.06-.18,.06-1.76,1.2-3.22,2.12-4.38,2.76-1.16,.64-2.72,1.36-4.68,2.16-1.96,.8-3.82,1.16-5.58,1.08-1.76-.08-3.4-.64-4.92-1.68-3.04-2.16-4.6-5.16-4.68-9-.08-3.84,1.36-8.04,4.32-12.6,1.84-2.88,4.06-5.4,6.66-7.56,2.6-2.16,4.82-2.64,6.66-1.44,1.12,.64,1.78,1.68,1.98,3.12,.2,1.44-.5,4.22-2.1,8.34-1.6,4.12-4.28,9.5-8.04,16.14,2.48,.32,6.56-1.4,12.24-5.16,1.04-.72,1.82-1.22,2.34-1.5,.52-.28,1.12-.58,1.8-.9,.68-.32,1.26-.44,1.74-.36,.48,.08,.96,.28,1.44,.6,1.2,.96,1.4,2.64,.6,5.04-8,24.8-11.16,39.84-9.48,45.12l.36,.72c.64,.08,1.62-.44,2.94-1.56,1.32-1.12,2.96-2.88,4.92-5.28,1.96-2.4,4.08-5.28,6.36-8.64,2.28-3.36,4.8-7.48,7.56-12.36,2.76-4.88,5.42-10.08,7.98-15.6,.32-.64,.78-1.06,1.38-1.26Zm-46.62-8.1c-.72,2.8-.56,5.04,.48,6.72,5.84-10.16,8.96-17.04,9.36-20.64-.96,.56-2.06,1.48-3.3,2.76-1.24,1.28-2.52,2.94-3.84,4.98-1.32,2.04-2.22,4.1-2.7,6.18Z"></path><path class="cls-1" d="M474.38,100.74c.88,1.52,.64,3.5-.72,5.94-1.36,2.44-3.72,5.1-7.08,7.98-2.08,1.76-4.64,3.52-7.68,5.28,1.68,3.68,3.64,6.96,5.88,9.84,.4,.48,.58,1.04,.54,1.68-.04,.64-.34,1.16-.9,1.56-.4,.32-.88,.48-1.44,.48-.72,0-1.32-.28-1.8-.84-2.4-3.12-4.52-6.68-6.36-10.68-3.84,1.84-7.66,3.28-11.46,4.32-3.8,1.04-7.34,1.5-10.62,1.38-3.28-.12-5.64-.94-7.08-2.46-4.08-4.48-.2-12.48,11.64-24,4.08-4,7.72-7.88,10.92-11.64-.08-5.68,.32-11.12,1.2-16.32,.8-4.64,2.28-8.34,4.44-11.1,2.16-2.76,4.36-4.3,6.6-4.62,2.64-.4,4.56,.6,5.76,3,1.28,2.64,.9,6.6-1.14,11.88-2.04,5.28-6.1,11.56-12.18,18.84,.24,9.04,1.68,17.16,4.32,24.36,2.4-1.44,4.52-2.92,6.36-4.44,3.52-3.04,5.68-5.6,6.48-7.68-.08,.08-.24,.12-.48,.12-.56,.24-1.12,.22-1.68-.06-.56-.28-.96-.72-1.2-1.32-.24-.6-.22-1.18,.06-1.74,.28-.56,.74-.96,1.38-1.2,3.04-1.04,5.12-.56,6.24,1.44Zm-45.24,21.36c1.28,1.36,4.32,1.6,9.12,.72,4.8-.88,9.76-2.56,14.88-5.04-2.4-6.56-3.92-13.76-4.56-21.6-2.48,2.72-5.16,5.52-8.04,8.4-2.24,2.08-4.16,4.06-5.76,5.94-1.6,1.88-2.8,3.44-3.6,4.68-.8,1.24-1.42,2.38-1.86,3.42-.44,1.04-.62,1.78-.54,2.22,.08,.44,.2,.86,.36,1.26Zm24.84-48c-.48,2.96-.8,6.16-.96,9.6,2.16-2.88,3.98-5.62,5.46-8.22,1.48-2.6,2.46-4.68,2.94-6.24,.48-1.56,.8-2.98,.96-4.26,.16-1.28,.04-2.08-.36-2.4-.16-.32-.36-.48-.6-.48h-.24c-1.28,.24-2.64,1.42-4.08,3.54-1.44,2.12-2.48,4.94-3.12,8.46Z"></path><path class="cls-1" d="M642.74,4.74c.64,0,1.18,.22,1.62,.66,.44,.44,.66,.98,.66,1.62,0,.4-.1,.78-.3,1.14-.2,.36-.48,.64-.84,.84-.36,.2-.74,.3-1.14,.3-9.2,.16-20.2,1.18-33,3.06-12.8,1.88-25.16,4.3-37.08,7.26-1.6,6.72-4.64,18.56-9.12,35.52-3.52,13.44-6.12,23.6-7.8,30.48,11.2-2.96,22.06-5.5,32.58-7.62,10.52-2.12,17.22-3.1,20.1-2.94,.64,.08,1.16,.34,1.56,.78,.4,.44,.58,.98,.54,1.62-.04,.64-.28,1.18-.72,1.62-.44,.44-.98,.66-1.62,.66-1.6-.16-4.64,.14-9.12,.9-4.48,.76-9.86,1.82-16.14,3.18-6.28,1.36-12.86,2.88-19.74,4.56-3.04,.8-5.96,1.56-8.76,2.28-7.68,31.04-11.64,52.32-11.88,63.84-.08,5.52,.92,8.72,3,9.6,1.2,.56,2.78,.5,4.74-.18,1.96-.68,4.26-1.94,6.9-3.78,2.64-1.84,5.12-3.66,7.44-5.46,2.32-1.8,5.12-4.22,8.4-7.26,3.28-3.04,5.78-5.38,7.5-7.02,1.72-1.64,4.02-3.86,6.9-6.66,1.68-1.68,2.92-2.92,3.72-3.72l2.04-1.92c3.12-3.04,5.28-5.08,6.48-6.12,.8-.72,1.4-1.24,1.8-1.56,.4-.32,.9-.66,1.5-1.02,.6-.36,1.14-.52,1.62-.48,.48,.04,.92,.26,1.32,.66,.56,.4,.88,.86,.96,1.38,.08,.52-.14,1.26-.66,2.22-.52,.96-1.06,1.84-1.62,2.64-.56,.8-1.56,2.16-3,4.08-.4,.56-.92,.88-1.56,.96-.64,.08-1.2-.08-1.68-.48-.16-.08-.32-.2-.48-.36-.16,.16-.64,.64-1.44,1.44l-2.04,1.92c-.8,.8-2.04,2-3.72,3.6-4.16,4.08-7.68,7.48-10.56,10.2-2.88,2.72-6.06,5.58-9.54,8.58-3.48,3-6.5,5.38-9.06,7.14-2.56,1.76-5.12,3.22-7.68,4.38-2.56,1.16-4.8,1.74-6.72,1.74-1.28,0-2.4-.24-3.36-.72-4-1.68-5.92-6.28-5.76-13.8,.16-11.76,3.92-32.56,11.28-62.4-16.16,4.56-25.28,7.84-27.36,9.84-.4,.4-.92,.6-1.56,.6s-1.18-.22-1.62-.66c-.44-.44-.66-.98-.66-1.62s.24-1.2,.72-1.68c2.8-2.72,13.4-6.6,31.8-11.64,1.84-7.36,4.68-18.36,8.52-33,4.08-15.52,6.92-26.52,8.52-33-7.36,1.92-13.82,3.92-19.38,6-5.56,2.08-10.22,4.28-13.98,6.6-3.76,2.32-5.96,4.56-6.6,6.72-.64,2,.68,4.12,3.96,6.36,.48,.4,.78,.9,.9,1.5s.02,1.18-.3,1.74c-.48,.64-1.12,.96-1.92,.96-.48,0-.92-.12-1.32-.36-5.12-3.52-7.04-7.36-5.76-11.52,2.48-8.24,17.68-15.96,45.6-23.16,.48-2,.88-3.72,1.2-5.16,.08-.64,.4-1.12,.96-1.44,.56-.32,1.14-.42,1.74-.3,.6,.12,1.08,.44,1.44,.96,.36,.52,.46,1.1,.3,1.74-.16,.8-.36,1.8-.6,3,11.76-2.88,23.92-5.22,36.48-7.02,12.56-1.8,23.36-2.74,32.4-2.82Z"></path><path class="cls-1" d="M656.66,8.1c1.68,2.48,.86,8.34-2.46,17.58-3.32,9.24-8.7,19.78-16.14,31.62-.08,.08-.16,.16-.24,.24-5.04,20.16-9.86,41.18-14.46,63.06-4.6,21.88-7.54,37.46-8.82,46.74h.24c.64,.24,1.1,.64,1.38,1.2,.28,.56,.3,1.16,.06,1.8-.48,1.36-.86,2.38-1.14,3.06-.28,.68-.7,1.34-1.26,1.98-.56,.64-1.16,.96-1.8,.96-.24,0-.52-.04-.84-.12-1.12-.4-1.72-1.5-1.8-3.3-.08-1.8,.48-6.22,1.68-13.26,1.44-8.64,3.6-19.92,6.48-33.84,6.64-31.68,13.24-59.92,19.8-84.72,.56-2.08,1.16-4.26,1.8-6.54,.64-2.28,1.56-5.14,2.76-8.58,1.2-3.44,2.38-6.46,3.54-9.06,1.16-2.6,2.46-4.92,3.9-6.96,1.44-2.04,2.8-3.14,4.08-3.3,1.36-.24,2.44,.24,3.24,1.44Zm-14.64,33.36c6.4-12.08,10-21.56,10.8-28.44-3.52,5.28-7.12,14.76-10.8,28.44Z"></path><path class="cls-1" d="M673.04,92.94c.6-.16,1.18-.08,1.74,.24,.56,.32,.9,.8,1.02,1.44,.12,.64,.02,1.24-.3,1.8-2.24,3.52-4.94,7.18-8.1,10.98-3.16,3.8-6.72,7.22-10.68,10.26-3.96,3.04-7.3,4.56-10.02,4.56-.96,0-1.8-.16-2.52-.48-5.36-2.32-5.92-11.72-1.68-28.2,.16-.64,.52-1.12,1.08-1.44,.56-.32,1.14-.4,1.74-.24,.6,.16,1.06,.52,1.38,1.08,.32,.56,.4,1.12,.24,1.68-.96,3.84-1.66,7.22-2.1,10.14-.44,2.92-.64,5.14-.6,6.66,.04,1.52,.2,2.78,.48,3.78,.28,1,.52,1.6,.72,1.8,.2,.2,.38,.34,.54,.42,2.08,.88,5.86-1.2,11.34-6.24,5.48-5.04,10.22-10.8,14.22-17.28,.4-.48,.9-.8,1.5-.96Zm-26.58-9.36c-2.32-.16-3.04-1.12-2.16-2.88,.8-1.44,1.84-2.4,3.12-2.88,2-.64,3.2-.12,3.6,1.56,.4,1.6-.2,2.8-1.8,3.6-.8,.4-1.72,.6-2.76,.6Z"></path><path class="cls-1" d="M739.82,92.88c.64,.04,1.16,.3,1.56,.78,.4,.48,.58,1.04,.54,1.68-.04,.64-.3,1.16-.78,1.56-10.56,9.04-20,17.48-28.32,25.32-2.4,14.8-7.52,30.24-15.36,46.32-5.68,11.52-12.7,20.92-21.06,28.2-8.36,7.28-15.54,10.92-21.54,10.92h-.24c-3.68-.08-6.16-1.56-7.44-4.44-1.68-3.76-.7-9.22,2.94-16.38,3.64-7.16,9.66-15.58,18.06-25.26,12.48-14.24,25.88-28.12,40.2-41.64,1.52-9.76,1.12-16.2-1.2-19.32-.96-1.28-2.32-1.76-4.08-1.44-3.92,.56-8.08,2.28-12.48,5.16-.56,.32-.98,.56-1.26,.72-.28,.16-.66,.34-1.14,.54-.48,.2-.9,.26-1.26,.18-.36-.08-.74-.28-1.14-.6-.4-.4-.68-.76-.84-1.08-.16-.32-.14-.88,.06-1.68,.2-.8,.46-1.58,.78-2.34,.32-.76,.92-2.1,1.8-4.02,.88-2.08,1.6-3.8,2.16-5.16,1.28-2.88,2.3-5.48,3.06-7.8,.76-2.32,1.24-4.1,1.44-5.34,.2-1.24,.3-2.3,.3-3.18s-.06-1.42-.18-1.62c-.12-.2-.18-.34-.18-.42-.24-.08-.68,0-1.32,.24-2.56,.96-5.54,3.56-8.94,7.8-3.4,4.24-5.9,8.92-7.5,14.04-.16,.64-.52,1.1-1.08,1.38-.56,.28-1.16,.32-1.8,.12-.64-.2-1.1-.58-1.38-1.14-.28-.56-.34-1.16-.18-1.8,1.76-5.44,4.74-10.82,8.94-16.14,4.2-5.32,8.14-8.34,11.82-9.06,2.16-.4,3.84,.16,5.04,1.68,2.64,3.36,1.36,11.04-3.84,23.04-.56,1.36-1.28,3.08-2.16,5.16-.08,.08-.12,.16-.12,.24-.08,.08-.12,.16-.12,.24,3.52-2,7.12-3.24,10.8-3.72,3.68-.56,6.52,.56,8.52,3.36,2.48,3.28,3.4,8.96,2.76,17.04,7.28-6.64,15.44-13.84,24.48-21.6,.48-.4,1.04-.58,1.68-.54Zm-46.56,73.62c6.32-12.88,10.88-25.84,13.68-38.88-12.4,11.92-24.16,24.28-35.28,37.08-8.16,9.36-13.84,17.2-17.04,23.52-3.2,6.32-4.28,10.68-3.24,13.08,.48,1.12,1.6,1.68,3.36,1.68,2.16,.08,4.82-.68,7.98-2.28,3.16-1.6,6.5-3.86,10.02-6.78,3.52-2.92,7.12-6.78,10.8-11.58,3.68-4.8,6.92-10.08,9.72-15.84Z"></path><path class="cls-1" d="M784.51,93.72c.6-.2,1.18-.16,1.74,.12,.56,.28,.94,.72,1.14,1.32,.2,.6,.18,1.18-.06,1.74-8.56,17.68-16.2,26.52-22.92,26.52-.4,0-.84-.04-1.32-.12-5.36-1.04-8.68-8.24-9.96-21.6-3.92,5.28-7.4,9.6-10.44,12.96-2.72,2.88-5.04,3.88-6.96,3-1.92-.72-2.84-2.8-2.76-6.24,0-2.88,.64-6.32,1.92-10.32,1.28-4,3.16-7.88,5.64-11.64,2.48-3.76,5.16-6.12,8.04-7.08,4.24-1.52,8.16-.12,11.76,4.2,.4,.48,.58,1.04,.54,1.68-.04,.64-.3,1.16-.78,1.56-.48,.4-1.04,.58-1.68,.54-.64-.04-1.16-.3-1.56-.78-2.8-3.36-5.64-4-8.52-1.92-3.28,2.32-6.02,6.5-8.22,12.54-2.2,6.04-3.06,10.34-2.58,12.9,.48-.4,1.04-.92,1.68-1.56,3.2-3.44,7.12-8.36,11.76-14.76,1.04-1.44,1.76-2.44,2.16-3,.64-.8,1.48-1.06,2.52-.78,1.04,.28,1.6,.98,1.68,2.1,.16,3.92,.48,7.4,.96,10.44,.48,3.04,.96,5.34,1.44,6.9,.48,1.56,1.04,2.86,1.68,3.9,.64,1.04,1.14,1.7,1.5,1.98,.36,.28,.74,.42,1.14,.42,1.12,.24,2.54-.3,4.26-1.62,1.72-1.32,3.92-3.88,6.6-7.68,2.68-3.8,5.42-8.62,8.22-14.46,.32-.64,.78-1.06,1.38-1.26Z"></path><path class="cls-1" d="M839.23,93.84c.6-.04,1.16,.14,1.68,.54,.52,.4,.8,.92,.84,1.56,.04,.64-.14,1.2-.54,1.68-3.04,3.52-6.52,6.06-10.44,7.62-3.92,1.56-7.64,1.86-11.16,.9-4.08-1.04-7.24-3.56-9.48-7.56-2,6.96-5.04,13.8-9.12,20.52-2.72,4.56-5.48,8.34-8.28,11.34-2.8,3-5.32,4.86-7.56,5.58-.8,.24-1.56,.36-2.28,.36-1.44,0-2.64-.48-3.6-1.44-4.64-4.72-2.32-20.96,6.96-48.72,.16-.56,.54-.98,1.14-1.26,.6-.28,1.2-.32,1.8-.12,.6,.2,1.04,.58,1.32,1.14,.28,.56,.3,1.16,.06,1.8-2.32,7.04-4.2,13.34-5.64,18.9-1.44,5.56-2.38,9.8-2.82,12.72-.44,2.92-.62,5.38-.54,7.38,.08,2,.2,3.26,.36,3.78,.16,.52,.36,.86,.6,1.02,.24,.24,.64,.24,1.2,0,2.24-.72,5.04-3.24,8.4-7.56,3.36-4.32,6.52-9.66,9.48-16.02,2.96-6.36,4.84-12.38,5.64-18.06,.08-.56,.34-1.02,.78-1.38,.44-.36,.94-.58,1.5-.66,1.28,0,2.04,.64,2.28,1.92,1.28,6.72,4.28,10.68,9,11.88,2.64,.72,5.5,.44,8.58-.84,3.08-1.28,5.82-3.36,8.22-6.24,.48-.48,1.02-.74,1.62-.78Z"></path><path class="cls-1" d="M876.13,93.36c.64-.12,1.22,0,1.74,.36,.52,.36,.82,.86,.9,1.5,.08,.64-.04,1.2-.36,1.68-9.04,12.64-17.28,21.6-24.72,26.88-2.96,2.08-5.88,3.12-8.76,3.12-2.24,0-4.2-.6-5.88-1.8-.96-.72-1.82-1.68-2.58-2.88-.76-1.2-1.42-2.88-1.98-5.04-.56-2.16-.66-5-.3-8.52,.36-3.52,1.26-7.52,2.7-12v-.12c2.24-7.28,4.96-13.04,8.16-17.28,3.2-4.24,6.08-6.4,8.64-6.48,1.84-.08,3.04,.72,3.6,2.4,.88,2.32-.16,5.6-3.12,9.84-2.96,4.24-7.32,8.8-13.08,13.68-.96,3.12-1.64,6-2.04,8.64-.4,2.64-.54,4.74-.42,6.3s.4,2.92,.84,4.08c.44,1.16,.84,1.98,1.2,2.46s.74,.88,1.14,1.2c2.4,1.76,5.48,1.28,9.24-1.44,7.04-4.96,14.88-13.52,23.52-25.68,.4-.48,.92-.78,1.56-.9Zm-23.28-15.54c-2.8,1.76-5.56,5.56-8.28,11.4,4.64-4.64,7.4-8.44,8.28-11.4Z"></path><path class="cls-1" d="M973.45,49.74c.4,.48,.56,1.04,.48,1.68-.08,.64-.4,1.16-.96,1.56-.96,.64-1.88,.6-2.76-.12-3.84-1.36-30.8-1.48-80.88-.36-5.2,21.84-10.48,45.52-15.84,71.04-6.4,30.8-10.28,51.96-11.64,63.48,.16,0,.32,.04,.48,.12,.64,.16,1.08,.54,1.32,1.14,.24,.6,.24,1.18,0,1.74-.4,1.28-.74,2.22-1.02,2.82-.28,.6-.7,1.2-1.26,1.8-.56,.6-1.16,.9-1.8,.9-.24,0-.52-.04-.84-.12-1.04-.32-1.66-1.16-1.86-2.52-.2-1.36-.1-3.2,.3-5.52,.32-3.36,1.04-8.2,2.16-14.52,2-12,5-27.6,9-46.8,5.36-25.92,10.76-50.4,16.2-73.44-5.44,.08-12.2,.24-20.28,.48-12.8,.32-20.32,.48-22.56,.48-.64,0-1.18-.22-1.62-.66-.44-.44-.66-.98-.66-1.62,0-.4,.1-.78,.3-1.14,.2-.36,.48-.64,.84-.84,.36-.2,.74-.3,1.14-.3,2.24,0,9.72-.2,22.44-.6,7.92-.16,15.12-.32,21.6-.48,2.56-10.56,4.84-19.52,6.84-26.88,.16-.64,.52-1.12,1.08-1.44,.56-.32,1.14-.4,1.74-.24,.6,.16,1.06,.52,1.38,1.08,.32,.56,.4,1.16,.24,1.8-1.92,7.12-4.12,15.64-6.6,25.56,24-.64,42.12-.88,54.36-.72,12.24,.16,19.94,.42,23.1,.78,3.16,.36,5.02,.98,5.58,1.86Z"></path><path class="cls-1" d="M936.67,93.72c.6-.2,1.18-.16,1.74,.12,.56,.28,.94,.72,1.14,1.32,.2,.6,.18,1.18-.06,1.74-8.56,17.68-16.2,26.52-22.92,26.52-.4,0-.84-.04-1.32-.12-5.36-1.04-8.68-8.24-9.96-21.6-3.92,5.28-7.4,9.6-10.44,12.96-2.72,2.88-5.04,3.88-6.96,3-1.92-.72-2.84-2.8-2.76-6.24,0-2.88,.64-6.32,1.92-10.32,1.28-4,3.16-7.88,5.64-11.64,2.48-3.76,5.16-6.12,8.04-7.08,4.24-1.52,8.16-.12,11.76,4.2,.4,.48,.58,1.04,.54,1.68-.04,.64-.3,1.16-.78,1.56-.48,.4-1.04,.58-1.68,.54-.64-.04-1.16-.3-1.56-.78-2.8-3.36-5.64-4-8.52-1.92-3.28,2.32-6.02,6.5-8.22,12.54-2.2,6.04-3.06,10.34-2.58,12.9,.48-.4,1.04-.92,1.68-1.56,3.2-3.44,7.12-8.36,11.76-14.76,1.04-1.44,1.76-2.44,2.16-3,.64-.8,1.48-1.06,2.52-.78,1.04,.28,1.6,.98,1.68,2.1,.16,3.92,.48,7.4,.96,10.44,.48,3.04,.96,5.34,1.44,6.9,.48,1.56,1.04,2.86,1.68,3.9,.64,1.04,1.14,1.7,1.5,1.98,.36,.28,.74,.42,1.14,.42,1.12,.24,2.54-.3,4.26-1.62,1.72-1.32,3.92-3.88,6.6-7.68,2.68-3.8,5.42-8.62,8.22-14.46,.32-.64,.78-1.06,1.38-1.26Z"></path></svg> 