<?xml version="1.0" encoding="UTF-8"?> <svg xmlns="http://www.w3.org/2000/svg" id="_Слой_1" data-name="Слой 1" viewBox="0 0 422.4 422.4"><defs><style> .cls-1 { fill: #ac884d; } </style></defs><path class="cls-1" d="M211.2,422.4c-8.53,0-17.07-6.4-17.07-17.07,0-96-78.93-177.07-177.07-177.07-8.53,0-17.07-6.4-17.07-17.07s6.4-17.07,17.07-17.07c96,0,177.07-78.93,177.07-177.07,0-8.53,6.4-17.07,17.07-17.07s17.07,6.4,17.07,17.07c0,96,78.93,177.07,177.07,177.07,8.53,0,17.07,6.4,17.07,17.07s-6.4,17.07-17.07,17.07c-96,0-177.07,78.93-177.07,177.07,0,8.53-8.53,17.07-17.07,17.07ZM100.27,213.33c51.2,21.33,91.73,61.87,113.07,113.07,21.33-51.2,61.87-91.73,113.07-113.07-53.33-21.33-93.87-61.87-115.2-110.93-21.33,49.07-61.87,89.6-110.93,110.93Z"></path></svg> 