<?xml version="1.0" encoding="UTF-8"?> <svg xmlns="http://www.w3.org/2000/svg" id="_Слой_1" data-name="Слой 1" viewBox="0 0 400 200"><defs><style> .cls-1 { fill: #1c1c1c; } </style></defs><path class="cls-1" d="M99.66,87.4c.6,.24,1.04,.64,1.32,1.2,.28,.56,.3,1.14,.06,1.74-.24,.6-.64,1.02-1.2,1.26-4.08,1.84-11.88,3.52-23.4,5.04-3.04,13.52-6.04,28.68-9,45.48-2.96,16.8-4.88,29.36-5.76,37.68,.64-.32,1.28-.36,1.92-.12,.4,.16,.74,.4,1.02,.72,.28,.32,.44,.66,.48,1.02,.04,.36,.02,.78-.06,1.26-1.04,2.8-1.92,4.82-2.64,6.06-.72,1.24-1.6,1.86-2.64,1.86-.24,0-.52-.04-.84-.12-1.2-.4-1.9-1.48-2.1-3.24-.2-1.76-.02-5.16,.54-10.2,.72-6.32,1.96-14.8,3.72-25.44,2.32-13.84,4.96-27.8,7.92-41.88-10.24,18.72-20.38,32.72-30.42,42-10.04,9.28-18.74,12.56-26.1,9.84-6.88-2.56-10.92-9.82-12.12-21.78-1.2-11.96,.64-26.94,5.52-44.94,3.68-13.52,9.94-28.9,18.78-46.14,8.84-17.24,17.7-30.58,26.58-40.02,3.68-3.92,7.34-6.52,10.98-7.8,3.64-1.28,6.86-1.16,9.66,.36,1.2,.72,2.3,1.7,3.3,2.94,1,1.24,1.94,3.22,2.82,5.94,.88,2.72,1.38,5.96,1.5,9.72,.12,3.76-.24,8.72-1.08,14.88-.84,6.16-2.3,13.04-4.38,20.64-.16,.64-.52,1.12-1.08,1.44-.56,.32-1.14,.4-1.74,.24-.6-.16-1.06-.52-1.38-1.08-.32-.56-.4-1.16-.24-1.8,2.64-9.84,4.26-18.42,4.86-25.74s.44-12.74-.48-16.26c-.92-3.52-2.38-5.8-4.38-6.84-1.76-1.04-3.98-.96-6.66,.24-2.68,1.2-5.46,3.28-8.34,6.24-8.64,9.2-17.28,22.22-25.92,39.06-8.64,16.84-14.76,31.9-18.36,45.18-4.8,17.68-6.6,32.16-5.4,43.44,1.04,10,4.12,15.92,9.24,17.76,1.44,.56,3.08,.72,4.92,.48,1.84-.24,3.78-.84,5.82-1.8s4.2-2.32,6.48-4.08c2.28-1.76,4.62-3.84,7.02-6.24,10.56-10.72,21.16-26.8,31.8-48.24-3.28,.32-8.4,.84-15.36,1.56-11.84,1.2-20.56,2.2-26.16,3h-.24c-.56,0-1.06-.2-1.5-.6-.44-.4-.7-.88-.78-1.44-.08-.4-.04-.8,.12-1.2,.16-.4,.4-.72,.72-.96,.32-.24,.68-.4,1.08-.48,5.68-.72,14.44-1.68,26.28-2.88,8.32-.88,14.4-1.52,18.24-1.92,0-.08,.04-.22,.12-.42,.08-.2,.16-.34,.24-.42,.56-1.28,1.52-1.68,2.88-1.2,.64,.24,1.12,.72,1.44,1.44,10.32-1.36,17.2-2.84,20.64-4.44,.56-.24,1.14-.24,1.74,0Z"></path><path class="cls-1" d="M144.23,91.3c.64-.12,1.22,0,1.74,.36,.52,.36,.82,.86,.9,1.5,.08,.64-.04,1.2-.36,1.68-9.04,12.64-17.28,21.6-24.72,26.88-2.96,2.08-5.88,3.12-8.76,3.12-2.24,0-4.2-.6-5.88-1.8-.96-.72-1.82-1.68-2.58-2.88-.76-1.2-1.42-2.88-1.98-5.04-.56-2.16-.66-5-.3-8.52,.36-3.52,1.26-7.52,2.7-12v-.12c2.24-7.28,4.96-13.04,8.16-17.28,3.2-4.24,6.08-6.4,8.64-6.48,1.84-.08,3.04,.72,3.6,2.4,.88,2.32-.16,5.6-3.12,9.84-2.96,4.24-7.32,8.8-13.08,13.68-.96,3.12-1.64,6-2.04,8.64-.4,2.64-.54,4.74-.42,6.3s.4,2.92,.84,4.08c.44,1.16,.84,1.98,1.2,2.46s.74,.88,1.14,1.2c2.4,1.76,5.48,1.28,9.24-1.44,7.04-4.96,14.88-13.52,23.52-25.68,.4-.48,.92-.78,1.56-.9Zm-23.28-15.54c-2.8,1.76-5.56,5.56-8.28,11.4,4.64-4.64,7.4-8.44,8.28-11.4Z"></path><path class="cls-1" d="M186.83,91.48c.64-.16,1.24-.08,1.8,.24,.56,.32,.92,.78,1.08,1.38,.16,.6,.08,1.18-.24,1.74-2.72,4.8-5.08,8.6-7.08,11.4-2,2.8-4.04,5-6.12,6.6-2.08,1.6-4.12,2.28-6.12,2.04-4-.48-7.16-4.8-9.48-12.96-1.68-5.52-3.12-8.28-4.32-8.28-.24-.08-.58,.02-1.02,.3-.44,.28-1.14,1-2.1,2.16-.96,1.16-2.02,2.74-3.18,4.74-1.16,2-2.68,4.96-4.56,8.88-1.88,3.92-3.9,8.56-6.06,13.92-.4,.96-1.12,1.44-2.16,1.44-.16,0-.32-.04-.48-.12-1.36-.32-1.96-1.16-1.8-2.52,.8-6.56,3.8-18.76,9-36.6,.56-1.84,.96-3.24,1.2-4.2,.24-.64,.64-1.1,1.2-1.38,.56-.28,1.14-.34,1.74-.18,.6,.16,1.06,.52,1.38,1.08,.32,.56,.36,1.16,.12,1.8-.16,.56-.56,1.96-1.2,4.2-1.76,6.16-3.12,10.96-4.08,14.4,2.56-4.8,4.8-8.12,6.72-9.96,1.92-1.84,3.76-2.72,5.52-2.64,2.08,.08,3.74,1.16,4.98,3.24,1.24,2.08,2.42,4.92,3.54,8.52,1.76,6.16,3.64,9.36,5.64,9.6,.96,.16,2.14-.38,3.54-1.62,1.4-1.24,2.9-3.04,4.5-5.4,1.6-2.36,2.82-4.22,3.66-5.58,.84-1.36,1.82-3.08,2.94-5.16,.32-.56,.8-.92,1.44-1.08Z"></path><path class="cls-1" d="M284.39,47.68c.4,.48,.56,1.04,.48,1.68-.08,.64-.4,1.16-.96,1.56-.96,.64-1.88,.6-2.76-.12-3.84-1.36-30.8-1.48-80.88-.36-5.2,21.84-10.48,45.52-15.84,71.04-6.4,30.8-10.28,51.96-11.64,63.48,.16,0,.32,.04,.48,.12,.64,.16,1.08,.54,1.32,1.14,.24,.6,.24,1.18,0,1.74-.4,1.28-.74,2.22-1.02,2.82-.28,.6-.7,1.2-1.26,1.8-.56,.6-1.16,.9-1.8,.9-.24,0-.52-.04-.84-.12-1.04-.32-1.66-1.16-1.86-2.52-.2-1.36-.1-3.2,.3-5.52,.32-3.36,1.04-8.2,2.16-14.52,2-12,5-27.6,9-46.8,5.36-25.92,10.76-50.4,16.2-73.44-5.44,.08-12.2,.24-20.28,.48-12.8,.32-20.32,.48-22.56,.48-.64,0-1.18-.22-1.62-.66-.44-.44-.66-.98-.66-1.62,0-.4,.1-.78,.3-1.14,.2-.36,.48-.64,.84-.84,.36-.2,.74-.3,1.14-.3,2.24,0,9.72-.2,22.44-.6,7.92-.16,15.12-.32,21.6-.48,2.56-10.56,4.84-19.52,6.84-26.88,.16-.64,.52-1.12,1.08-1.44,.56-.32,1.14-.4,1.74-.24,.6,.16,1.06,.52,1.38,1.08,.32,.56,.4,1.16,.24,1.8-1.92,7.12-4.12,15.64-6.6,25.56,24-.64,42.12-.88,54.36-.72,12.24,.16,19.94,.42,23.1,.78,3.16,.36,5.02,.98,5.58,1.86Z"></path><path class="cls-1" d="M234.35,6.04c1.68,2.48,.86,8.34-2.46,17.58-3.32,9.24-8.7,19.78-16.14,31.62-.08,.08-.16,.16-.24,.24-5.04,20.16-9.86,41.18-14.46,63.06-4.6,21.88-7.54,37.46-8.82,46.74h.24c.64,.24,1.1,.64,1.38,1.2,.28,.56,.3,1.16,.06,1.8-.48,1.36-.86,2.38-1.14,3.06-.28,.68-.7,1.34-1.26,1.98-.56,.64-1.16,.96-1.8,.96-.24,0-.52-.04-.84-.12-1.12-.4-1.72-1.5-1.8-3.3-.08-1.8,.48-6.22,1.68-13.26,1.44-8.64,3.6-19.92,6.48-33.84,6.64-31.68,13.24-59.92,19.8-84.72,.56-2.08,1.16-4.26,1.8-6.54,.64-2.28,1.56-5.14,2.76-8.58,1.2-3.44,2.38-6.46,3.54-9.06,1.16-2.6,2.46-4.92,3.9-6.96s2.8-3.14,4.08-3.3c1.36-.24,2.44,.24,3.24,1.44Zm-14.64,33.36c6.4-12.08,10-21.56,10.8-28.44-3.52,5.28-7.12,14.76-10.8,28.44Z"></path><path class="cls-1" d="M256.19,91.3c.64-.12,1.22,0,1.74,.36,.52,.36,.82,.86,.9,1.5,.08,.64-.04,1.2-.36,1.68-9.04,12.64-17.28,21.6-24.72,26.88-2.96,2.08-5.88,3.12-8.76,3.12-2.24,0-4.2-.6-5.88-1.8-.96-.72-1.82-1.68-2.58-2.88-.76-1.2-1.42-2.88-1.98-5.04-.56-2.16-.66-5-.3-8.52,.36-3.52,1.26-7.52,2.7-12v-.12c2.24-7.28,4.96-13.04,8.16-17.28,3.2-4.24,6.08-6.4,8.64-6.48,1.84-.08,3.04,.72,3.6,2.4,.88,2.32-.16,5.6-3.12,9.84-2.96,4.24-7.32,8.8-13.08,13.68-.96,3.12-1.64,6-2.04,8.64-.4,2.64-.54,4.74-.42,6.3s.4,2.92,.84,4.08c.44,1.16,.84,1.98,1.2,2.46s.74,.88,1.14,1.2c2.4,1.76,5.48,1.28,9.24-1.44,7.04-4.96,14.88-13.52,23.52-25.68,.4-.48,.92-.78,1.56-.9Zm-23.28-15.54c-2.8,1.76-5.56,5.56-8.28,11.4,4.64-4.64,7.4-8.44,8.28-11.4Z"></path><path class="cls-1" d="M318.23,91.06c.64-.04,1.2,.14,1.68,.54,.48,.4,.74,.92,.78,1.56,.04,.64-.14,1.2-.54,1.68-10.16,11.92-18.2,16.76-24.12,14.52-4.24-1.6-6.52-6.68-6.84-15.24-1.12,2.08-2.88,5.56-5.28,10.44-1.36,2.96-2.28,4.84-2.76,5.64-2.08,4-4.32,5.68-6.72,5.04-3.28-.8-4.88-5.4-4.8-13.8,0-1.6,.04-3.48,.12-5.64-5.28,7.52-10.68,16.56-16.2,27.12-.96,1.84-2,2.76-3.12,2.76-.4,0-.78-.1-1.14-.3-.36-.2-.64-.38-.84-.54-.2-.16-.4-.6-.6-1.32-.2-.72-.24-1.64-.12-2.76,.12-1.12,.38-2.76,.78-4.92,.4-2.16,1-4.76,1.8-7.8,2.56-10.24,5.64-19.4,9.24-27.48,.24-.64,.66-1.08,1.26-1.32,.6-.24,1.2-.22,1.8,.06,.6,.28,1,.72,1.2,1.32,.2,.6,.18,1.18-.06,1.74-4,9.04-7.28,19.08-9.84,30.12,4.8-8.48,9.76-16.28,14.88-23.4,1.12-1.6,2.36-2.16,3.72-1.68,.96,.32,1.52,.98,1.68,1.98,.16,1,.2,2.98,.12,5.94-.08,2.48-.12,4.52-.12,6.12,0,4.24,.44,7.24,1.32,9,.48-.48,1.04-1.28,1.68-2.4,.4-.8,1.28-2.6,2.64-5.4,3.28-6.88,5.64-11.38,7.08-13.5,1.44-2.12,2.92-3.02,4.44-2.7,1.68,.4,2.52,2.16,2.52,5.28-.08,7.84,1.2,12.28,3.84,13.32,1.6,.56,4.04-.18,7.32-2.22,3.28-2.04,7.16-5.7,11.64-10.98,.4-.48,.92-.74,1.56-.78Z"></path><path class="cls-1" d="M353.63,91.3c.64-.12,1.22,0,1.74,.36,.52,.36,.82,.86,.9,1.5,.08,.64-.04,1.2-.36,1.68-9.04,12.64-17.28,21.6-24.72,26.88-2.96,2.08-5.88,3.12-8.76,3.12-2.24,0-4.2-.6-5.88-1.8-.96-.72-1.82-1.68-2.58-2.88-.76-1.2-1.42-2.88-1.98-5.04-.56-2.16-.66-5-.3-8.52,.36-3.52,1.26-7.52,2.7-12v-.12c2.24-7.28,4.96-13.04,8.16-17.28,3.2-4.24,6.08-6.4,8.64-6.48,1.84-.08,3.04,.72,3.6,2.4,.88,2.32-.16,5.6-3.12,9.84-2.96,4.24-7.32,8.8-13.08,13.68-.96,3.12-1.64,6-2.04,8.64-.4,2.64-.54,4.74-.42,6.3s.4,2.92,.84,4.08c.44,1.16,.84,1.98,1.2,2.46s.74,.88,1.14,1.2c2.4,1.76,5.48,1.28,9.24-1.44,7.04-4.96,14.88-13.52,23.52-25.68,.4-.48,.92-.78,1.56-.9Zm-23.28-15.54c-2.8,1.76-5.56,5.56-8.28,11.4,4.64-4.64,7.4-8.44,8.28-11.4Z"></path><path class="cls-1" d="M396.23,91.48c.64-.16,1.24-.08,1.8,.24,.56,.32,.92,.78,1.08,1.38,.16,.6,.08,1.18-.24,1.74-2.72,4.8-5.08,8.6-7.08,11.4-2,2.8-4.04,5-6.12,6.6-2.08,1.6-4.12,2.28-6.12,2.04-4-.48-7.16-4.8-9.48-12.96-1.68-5.52-3.12-8.28-4.32-8.28-.24-.08-.58,.02-1.02,.3-.44,.28-1.14,1-2.1,2.16-.96,1.16-2.02,2.74-3.18,4.74-1.16,2-2.68,4.96-4.56,8.88-1.88,3.92-3.9,8.56-6.06,13.92-.4,.96-1.12,1.44-2.16,1.44-.16,0-.32-.04-.48-.12-1.36-.32-1.96-1.16-1.8-2.52,.8-6.56,3.8-18.76,9-36.6,.56-1.84,.96-3.24,1.2-4.2,.24-.64,.64-1.1,1.2-1.38,.56-.28,1.14-.34,1.74-.18,.6,.16,1.06,.52,1.38,1.08,.32,.56,.36,1.16,.12,1.8-.16,.56-.56,1.96-1.2,4.2-1.76,6.16-3.12,10.96-4.08,14.4,2.56-4.8,4.8-8.12,6.72-9.96,1.92-1.84,3.76-2.72,5.52-2.64,2.08,.08,3.74,1.16,4.98,3.24,1.24,2.08,2.42,4.92,3.54,8.52,1.76,6.16,3.64,9.36,5.64,9.6,.96,.16,2.14-.38,3.54-1.62,1.4-1.24,2.9-3.04,4.5-5.4,1.6-2.36,2.82-4.22,3.66-5.58,.84-1.36,1.82-3.08,2.94-5.16,.32-.56,.8-.92,1.44-1.08Z"></path></svg> 