<?xml version="1.0" encoding="UTF-8"?> <svg xmlns="http://www.w3.org/2000/svg" id="_Слой_1" data-name="Слой 1" viewBox="0 0 370.21 179.47"><defs><style> .cls-1 { fill: #1d1d1b; } </style></defs><path class="cls-1" d="M128.95,.22c.5,.23,.82,.6,.95,1.1,.13,.5,.08,.98-.15,1.45-.23,.47-.58,.8-1.05,1-4.73,1.47-14.8,4.53-30.2,9.2-17.67,5.33-31.07,9.43-40.2,12.3-2.2,8.67-6.6,27.83-13.2,57.5-6.8,30.87-11.67,52.3-14.6,64.3-2.33,9.73-4.23,17.07-5.7,22-1.13,3.87-2.03,6.45-2.7,7.75-.67,1.3-1.47,1.95-2.4,1.95h-.4c-1.2-.2-1.9-1.2-2.1-3-.2-1.8-.03-5.93,.5-12.4,.07-.53,.3-.97,.7-1.3,.4-.33,.87-.47,1.4-.4,.33,0,.65,.1,.95,.3,.3,.2,.52,.47,.65,.8,.13,.33,.17,.67,.1,1-.13,1.47-.23,2.8-.3,4,3.13-10.93,9.87-39.57,20.2-85.9,6.2-28,10.4-46.4,12.6-55.2-6.07,1.87-11.5,3.6-16.3,5.2-18,6-28.93,10.27-32.8,12.8,.67,.47,.93,1.1,.8,1.9-.2,1.07-.83,1.6-1.9,1.6-.13,0-.27-.03-.4-.1-2.13-.4-3.27-1.37-3.4-2.9,0-1.07,.7-2.15,2.1-3.25,1.4-1.1,4.2-2.52,8.4-4.25,5.47-2.33,13.4-5.23,23.8-8.7,12.73-4.27,33.77-10.83,63.1-19.7C112.73,4.67,122.77,1.61,127.5,.07c.47-.13,.95-.08,1.45,.15Z"></path><path class="cls-1" d="M97.3,93.87c.53-.13,1.02-.07,1.45,.2,.43,.27,.72,.67,.85,1.2,.13,.53,.07,1.03-.2,1.5-2.2,3.53-4.3,6.68-6.3,9.45-2,2.77-3.72,5-5.15,6.7-1.43,1.7-2.82,3.13-4.15,4.3-1.33,1.17-2.4,2-3.2,2.5-.8,.5-1.6,.83-2.4,1-.8,.17-1.35,.23-1.65,.2-.3-.03-.65-.08-1.05-.15-3.13-.8-4.9-4.37-5.3-10.7-.07-1.4-.23-2.58-.5-3.55-.27-.97-.5-1.6-.7-1.9-.2-.3-.37-.45-.5-.45h-.1c-.53,0-1.27,.42-2.2,1.25-.93,.83-2.07,2.18-3.4,4.05-1.33,1.87-2.73,4.13-4.2,6.8-1.47,2.67-3.08,6.03-4.85,10.1-1.77,4.07-3.48,8.47-5.15,13.2-.27,.87-.87,1.3-1.8,1.3h-.4c-.33-.07-.62-.2-.85-.4-.23-.2-.42-.45-.55-.75-.13-.3-.17-.58-.1-.85,.13-2.73,1.88-11.52,5.25-26.35,3.37-14.83,6.13-26.77,8.3-35.8,2.17-9.03,3.85-15.95,5.05-20.75,2.27-9.2,4.88-17.05,7.85-23.55,2.97-6.5,5.52-9.95,7.65-10.35,1.13-.2,2,.13,2.6,1,1.47,2,.62,7.17-2.55,15.5-3.17,8.33-8.08,18.53-14.75,30.6-5.13,21.13-9.1,38.1-11.9,50.9,2.93-6.2,5.83-11.12,8.7-14.75,2.87-3.63,5.5-5.28,7.9-4.95,3,.4,4.67,3.53,5,9.4,.33,4.47,1.13,6.87,2.4,7.2,.2,.07,.48,.07,.85,0,.37-.07,1.12-.47,2.25-1.2,1.13-.73,2.37-1.82,3.7-3.25,1.33-1.43,3.15-3.68,5.45-6.75,2.3-3.07,4.78-6.77,7.45-11.1,.27-.4,.67-.67,1.2-.8ZM78.3,27.67c-3.67,5.27-7.1,13.97-10.3,26.1,5.87-11.8,9.3-20.5,10.3-26.1Z"></path><path class="cls-1" d="M126.9,94.32c.53-.1,1.02,0,1.45,.3,.43,.3,.68,.72,.75,1.25,.07,.53-.03,1-.3,1.4-7.53,10.53-14.4,18-20.6,22.4-2.47,1.73-4.9,2.6-7.3,2.6-1.87,0-3.5-.5-4.9-1.5-.8-.6-1.52-1.4-2.15-2.4s-1.18-2.4-1.65-4.2c-.47-1.8-.55-4.17-.25-7.1,.3-2.93,1.05-6.27,2.25-10v-.1c1.87-6.07,4.13-10.87,6.8-14.4,2.67-3.53,5.07-5.33,7.2-5.4,1.53-.07,2.53,.6,3,2,.73,1.93-.13,4.67-2.6,8.2-2.47,3.53-6.1,7.33-10.9,11.4-.8,2.6-1.37,5-1.7,7.2-.33,2.2-.45,3.95-.35,5.25s.33,2.43,.7,3.4c.37,.97,.7,1.65,1,2.05,.3,.4,.62,.73,.95,1,2,1.47,4.57,1.07,7.7-1.2,5.87-4.13,12.4-11.27,19.6-21.4,.33-.4,.77-.65,1.3-.75Zm-19.4-12.95c-2.33,1.47-4.63,4.63-6.9,9.5,3.87-3.87,6.17-7.03,6.9-9.5Z"></path><path class="cls-1" d="M182.15,93.97c.5-.13,.98-.07,1.45,.2,.47,.27,.75,.67,.85,1.2,.1,.53,.02,1.03-.25,1.5-1.87,2.93-4.12,5.98-6.75,9.15-2.63,3.17-5.6,6.02-8.9,8.55-3.3,2.53-6.08,3.8-8.35,3.8-.8,0-1.5-.13-2.1-.4-4.47-1.93-4.93-9.77-1.4-23.5,.13-.53,.43-.93,.9-1.2,.47-.27,.95-.33,1.45-.2,.5,.13,.88,.43,1.15,.9,.27,.47,.33,.93,.2,1.4-.8,3.2-1.38,6.02-1.75,8.45-.37,2.43-.53,4.28-.5,5.55,.03,1.27,.17,2.32,.4,3.15,.23,.83,.43,1.33,.6,1.5,.17,.17,.32,.28,.45,.35,1.73,.73,4.88-1,9.45-5.2,4.57-4.2,8.52-9,11.85-14.4,.33-.4,.75-.67,1.25-.8Zm-22.15-7.8c-1.93-.13-2.53-.93-1.8-2.4,.67-1.2,1.53-2,2.6-2.4,1.67-.53,2.67-.1,3,1.3,.33,1.33-.17,2.33-1.5,3-.67,.33-1.43,.5-2.3,.5Z"></path><path class="cls-1" d="M218.4,94.47c.53-.13,1.03-.07,1.5,.2,.47,.27,.77,.65,.9,1.15,.13,.5,.07,.98-.2,1.45-2.27,4-4.23,7.17-5.9,9.5-1.67,2.33-3.37,4.17-5.1,5.5-1.73,1.33-3.43,1.9-5.1,1.7-3.33-.4-5.97-4-7.9-10.8-1.4-4.6-2.6-6.9-3.6-6.9-.2-.07-.48,.02-.85,.25-.37,.23-.95,.83-1.75,1.8-.8,.97-1.68,2.28-2.65,3.95-.97,1.67-2.23,4.13-3.8,7.4-1.57,3.27-3.25,7.13-5.05,11.6-.33,.8-.93,1.2-1.8,1.2-.13,0-.27-.03-.4-.1-1.13-.27-1.63-.97-1.5-2.1,.67-5.47,3.17-15.63,7.5-30.5,.47-1.53,.8-2.7,1-3.5,.2-.53,.53-.92,1-1.15,.47-.23,.95-.28,1.45-.15,.5,.13,.88,.43,1.15,.9,.27,.47,.3,.97,.1,1.5-.13,.47-.47,1.63-1,3.5-1.47,5.13-2.6,9.13-3.4,12,2.13-4,4-6.77,5.6-8.3,1.6-1.53,3.13-2.27,4.6-2.2,1.73,.07,3.12,.97,4.15,2.7,1.03,1.73,2.02,4.1,2.95,7.1,1.47,5.13,3.03,7.8,4.7,8,.8,.13,1.78-.32,2.95-1.35,1.17-1.03,2.42-2.53,3.75-4.5,1.33-1.97,2.35-3.52,3.05-4.65,.7-1.13,1.52-2.57,2.45-4.3,.27-.47,.67-.77,1.2-.9Z"></path><path class="cls-1" d="M264.15,94.72c.5-.03,.97,.12,1.4,.45,.43,.33,.67,.77,.7,1.3,.03,.53-.12,1-.45,1.4-2.53,2.93-5.43,5.05-8.7,6.35-3.27,1.3-6.37,1.55-9.3,.75-3.4-.87-6.03-2.97-7.9-6.3-1.67,5.8-4.2,11.5-7.6,17.1-2.27,3.8-4.57,6.95-6.9,9.45-2.33,2.5-4.43,4.05-6.3,4.65-.67,.2-1.3,.3-1.9,.3-1.2,0-2.2-.4-3-1.2-3.87-3.93-1.93-17.47,5.8-40.6,.13-.47,.45-.82,.95-1.05,.5-.23,1-.27,1.5-.1,.5,.17,.87,.48,1.1,.95,.23,.47,.25,.97,.05,1.5-1.93,5.87-3.5,11.12-4.7,15.75-1.2,4.63-1.98,8.17-2.35,10.6-.37,2.43-.52,4.48-.45,6.15,.07,1.67,.17,2.72,.3,3.15,.13,.43,.3,.72,.5,.85,.2,.2,.53,.2,1,0,1.87-.6,4.2-2.7,7-6.3,2.8-3.6,5.43-8.05,7.9-13.35,2.47-5.3,4.03-10.32,4.7-15.05,.07-.47,.28-.85,.65-1.15,.37-.3,.78-.48,1.25-.55,1.07,0,1.7,.53,1.9,1.6,1.07,5.6,3.57,8.9,7.5,9.9,2.2,.6,4.58,.37,7.15-.7,2.57-1.07,4.85-2.8,6.85-5.2,.4-.4,.85-.62,1.35-.65Z"></path><path class="cls-1" d="M289.15,93.97c.5-.13,.98-.07,1.45,.2,.47,.27,.75,.67,.85,1.2,.1,.53,.02,1.03-.25,1.5-1.87,2.93-4.12,5.98-6.75,9.15-2.63,3.17-5.6,6.02-8.9,8.55-3.3,2.53-6.08,3.8-8.35,3.8-.8,0-1.5-.13-2.1-.4-4.47-1.93-4.93-9.77-1.4-23.5,.13-.53,.43-.93,.9-1.2,.47-.27,.95-.33,1.45-.2,.5,.13,.88,.43,1.15,.9,.27,.47,.33,.93,.2,1.4-.8,3.2-1.38,6.02-1.75,8.45-.37,2.43-.53,4.28-.5,5.55,.03,1.27,.17,2.32,.4,3.15,.23,.83,.43,1.33,.6,1.5,.17,.17,.32,.28,.45,.35,1.73,.73,4.88-1,9.45-5.2,4.57-4.2,8.52-9,11.85-14.4,.33-.4,.75-.67,1.25-.8Zm-22.15-7.8c-1.93-.13-2.53-.93-1.8-2.4,.67-1.2,1.53-2,2.6-2.4,1.67-.53,2.67-.1,3,1.3,.33,1.33-.17,2.33-1.5,3-.67,.33-1.43,.5-2.3,.5Z"></path><path class="cls-1" d="M369.8,57.97c.33,.4,.47,.87,.4,1.4-.07,.53-.33,.97-.8,1.3-.8,.53-1.57,.5-2.3-.1-3.2-1.13-25.67-1.23-67.4-.3-4.33,18.2-8.73,37.93-13.2,59.2-5.33,25.67-8.57,43.3-9.7,52.9,.13,0,.27,.03,.4,.1,.53,.13,.9,.45,1.1,.95s.2,.98,0,1.45c-.33,1.07-.62,1.85-.85,2.35-.23,.5-.58,1-1.05,1.5-.47,.5-.97,.75-1.5,.75-.2,0-.43-.03-.7-.1-.87-.27-1.38-.97-1.55-2.1-.17-1.13-.08-2.67,.25-4.6,.27-2.8,.87-6.83,1.8-12.1,1.67-10,4.17-23,7.5-39,4.47-21.6,8.97-42,13.5-61.2-4.53,.07-10.17,.2-16.9,.4-10.67,.27-16.93,.4-18.8,.4-.53,0-.98-.18-1.35-.55s-.55-.82-.55-1.35c0-.33,.08-.65,.25-.95,.17-.3,.4-.53,.7-.7,.3-.17,.62-.25,.95-.25,1.87,0,8.1-.17,18.7-.5,6.6-.13,12.6-.27,18-.4,2.13-8.8,4.03-16.27,5.7-22.4,.13-.53,.43-.93,.9-1.2,.47-.27,.95-.33,1.45-.2,.5,.13,.88,.43,1.15,.9,.27,.47,.33,.97,.2,1.5-1.6,5.93-3.43,13.03-5.5,21.3,20-.53,35.1-.73,45.3-.6,10.2,.13,16.62,.35,19.25,.65,2.63,.3,4.18,.82,4.65,1.55Z"></path><path class="cls-1" d="M331.09,94.32c.53-.1,1.02,0,1.45,.3,.43,.3,.68,.72,.75,1.25,.07,.53-.03,1-.3,1.4-7.53,10.53-14.4,18-20.6,22.4-2.47,1.73-4.9,2.6-7.3,2.6-1.87,0-3.5-.5-4.9-1.5-.8-.6-1.52-1.4-2.15-2.4s-1.18-2.4-1.65-4.2c-.47-1.8-.55-4.17-.25-7.1,.3-2.93,1.05-6.27,2.25-10v-.1c1.87-6.07,4.13-10.87,6.8-14.4,2.67-3.53,5.07-5.33,7.2-5.4,1.53-.07,2.53,.6,3,2,.73,1.93-.13,4.67-2.6,8.2-2.47,3.53-6.1,7.33-10.9,11.4-.8,2.6-1.37,5-1.7,7.2-.33,2.2-.45,3.95-.35,5.25s.33,2.43,.7,3.4c.37,.97,.7,1.65,1,2.05,.3,.4,.62,.73,.95,1,2,1.47,4.57,1.07,7.7-1.2,5.87-4.13,12.4-11.27,19.6-21.4,.33-.4,.77-.65,1.3-.75Zm-19.4-12.95c-2.33,1.47-4.63,4.63-6.9,9.5,3.87-3.87,6.17-7.03,6.9-9.5Z"></path></svg> 