<?xml version="1.0" encoding="UTF-8"?> <svg xmlns="http://www.w3.org/2000/svg" id="_Слой_1" data-name=" Слой 1" viewBox="0 0 1300 500"><defs><style> .cls-1 { fill: #1c1c1c; } </style></defs><path class="cls-1" d="M500.03,92.21c7.04,6.6,12.79,15.81,17.27,27.61,4.47,11.81,7.55,25.45,9.24,40.92,1.68,15.48,1.21,33.08-1.43,52.8-2.64,19.73-7.48,39.86-14.52,60.39-7.04,20.68-15.11,38.97-24.2,54.89-9.1,15.91-18.34,28.56-27.72,37.95-9.39,9.38-18.67,16.42-27.83,21.12-9.17,4.69-18.01,7.04-26.51,7.04-4.55,0-8.8-.59-12.76-1.76-9.83-3.08-18.12-9.39-24.86-18.92-6.75-9.54-11.52-21.71-14.3-36.52-6.16-33-2.28-74.65,11.66-124.96,2.49-8.94,5.35-17.74,8.58-26.4,3.22-8.65,6.93-17.23,11.11-25.74,4.18-8.5,8.61-16.13,13.31-22.88,4.69-6.74,9.86-12.65,15.51-17.71,5.64-5.06,11.4-8.54,17.27-10.45,2.64-.88,5.2-1.46,7.7-1.76,8.21-11.88,17.08-19.72,26.62-23.54,12.9-5.13,24.86-2.49,35.86,7.92h0Zm2.64,179.08c6.6-19.5,11.18-38.72,13.75-57.64,2.56-18.92,3.15-35.75,1.76-50.49-1.4-14.74-4.15-27.72-8.25-38.94-4.11-11.22-9.32-19.83-15.62-25.85-8.51-7.92-17.53-9.97-27.06-6.16-6.75,2.64-13.28,8.07-19.58,16.28,5.13,1.18,10.12,3.67,14.96,7.48,.88,.74,1.39,1.69,1.54,2.86,.14,1.18-.15,2.2-.88,3.08-.74,.88-1.65,1.4-2.75,1.54-1.1,.15-2.17-.14-3.19-.88-4.99-3.81-9.98-5.86-14.96-6.16-11.44,18.04-21.16,44.74-29.15,80.08-8,35.35-13.17,79.5-15.51,132.44,0,1.17-.44,2.16-1.32,2.97-.88,.8-1.91,1.17-3.08,1.1-1.18-.08-2.17-.55-2.97-1.43-.81-.88-1.14-1.84-.99-2.86,1.32-31.83,3.88-61.19,7.7-88.11,3.81-26.91,8.58-50.63,14.3-71.17,5.72-20.53,12.39-37.69,20.02-51.48-11,4.26-21.86,15.15-32.56,32.67-10.71,17.53-19.58,38.98-26.62,64.35-5.58,20.1-9.5,38.94-11.77,56.54-2.28,17.6-2.97,32.78-2.09,45.54s2.93,23.98,6.16,33.66c3.22,9.68,7.33,17.3,12.32,22.88,4.98,5.57,10.7,9.38,17.16,11.44,7.92,2.49,16.57,1.98,25.96-1.54,9.38-3.52,18.92-9.76,28.6-18.7,9.68-8.95,19.28-21.49,28.82-37.62,9.53-16.14,17.96-34.76,25.3-55.88h0Z"></path><path class="cls-1" d="M610.69,234.55c1.17-.29,2.23-.11,3.19,.55,.95,.66,1.57,1.58,1.87,2.75,.29,1.18,.07,2.2-.66,3.08-4.84,7.48-9.06,13.79-12.65,18.92-3.6,5.14-7.67,10.6-12.21,16.39-4.55,5.8-8.69,10.41-12.43,13.86-3.74,3.44-7.67,6.3-11.77,8.58-4.11,2.27-8,3.41-11.66,3.41-1.32,0-2.64-.15-3.96-.44-5.28-1.18-9.32-4.26-12.1-9.24-2.93-6.6-4.21-13.82-3.85-21.67,.37-7.84,1.95-15.58,4.73-23.21,2.93-8.06,6.63-14.3,11.11-18.7,4.47-4.4,8.69-5.94,12.65-4.62,.88,.3,1.68,.7,2.42,1.21,.73,.52,1.61,1.54,2.64,3.08,1.02,1.54,1.54,3.56,1.54,6.05s-.44,5.72-1.32,9.68c-.3,1.18-.92,2.06-1.87,2.64-.96,.59-2.02,.74-3.19,.44-1.18-.29-2.06-.95-2.64-1.98-.59-1.02-.74-2.05-.44-3.08,1.46-5.57,1.54-8.94,.22-10.12-.59,0-1.51,.44-2.75,1.32-1.25,.88-2.9,2.83-4.95,5.83-2.06,3.01-3.89,6.79-5.5,11.33-2.64,6.9-4.07,13.9-4.29,21.01-.22,7.12,.77,12.65,2.97,16.61,1.46,2.78,3.59,4.47,6.38,5.06,2.49,.58,5.31,.22,8.47-1.1,3.15-1.32,6.52-3.71,10.12-7.15,3.59-3.44,6.85-6.82,9.79-10.12,2.93-3.3,6.34-7.7,10.23-13.2,3.88-5.5,6.85-9.75,8.91-12.76,2.05-3,4.84-7.22,8.36-12.65,.58-.88,1.46-1.46,2.64-1.76h0Z"></path><path class="cls-1" d="M789.33,155.35c.73,.88,1.02,1.91,.88,3.08-.15,1.18-.74,2.13-1.76,2.86-1.76,1.18-3.45,1.1-5.06-.22-7.04-2.49-56.47-2.71-148.28-.66-9.54,40.04-19.22,83.46-29.04,130.24-11.73,56.46-18.84,95.26-21.34,116.38,.3,0,.59,.07,.88,.22,1.18,.29,1.98,.99,2.42,2.09s.44,2.16,0,3.19c-.73,2.34-1.35,4.07-1.87,5.17-.51,1.1-1.28,2.2-2.31,3.3-1.02,1.1-2.12,1.65-3.3,1.65-.44,0-.95-.08-1.54-.22-1.9-.59-3.04-2.13-3.41-4.62-.36-2.5-.18-5.87,.55-10.12,.59-6.16,1.91-15.04,3.96-26.62,3.67-22,9.17-50.6,16.5-85.8,9.82-47.52,19.72-92.4,29.7-134.64-9.98,.15-22.37,.44-37.18,.88-23.46,.59-37.25,.88-41.36,.88-1.17,0-2.16-.4-2.97-1.21-.8-.8-1.21-1.79-1.21-2.97,0-.73,.19-1.43,.55-2.09,.37-.66,.88-1.17,1.54-1.54,.66-.36,1.36-.55,2.09-.55,4.11,0,17.82-.36,41.14-1.1,14.52-.29,27.72-.58,39.6-.88,4.69-19.36,8.87-35.78,12.54-49.28,.29-1.17,.95-2.05,1.98-2.64,1.02-.58,2.09-.73,3.19-.44,1.1,.3,1.94,.96,2.53,1.98,.58,1.03,.73,2.13,.44,3.3-3.52,13.06-7.56,28.68-12.1,46.86,44-1.17,77.22-1.61,99.66-1.32,22.44,.3,36.55,.77,42.35,1.43,5.79,.66,9.2,1.8,10.23,3.41h0Z"></path><path class="cls-1" d="M709.47,236.31c1.17-.14,2.23,.15,3.19,.88,.95,.74,1.5,1.69,1.65,2.86,.14,1.18-.15,2.2-.88,3.08-6.02,7.78-13.2,13.86-21.56,18.26-8.36,4.4-16.21,5.8-23.54,4.18-2.06,4.99-4.92,8.91-8.58,11.77-3.67,2.86-7.48,4.29-11.44,4.29h-.22c-3.96-.14-7.45-1.5-10.45-4.07-3.01-2.56-5.09-6.12-6.27-10.67-1.9-7.18-1.57-14.04,.99-20.57,2.56-6.52,6.27-11.33,11.11-14.41,1.02-.73,2.2-.88,3.52-.44,1.32-3.22,3.19-5.72,5.61-7.48s4.95-2.42,7.59-1.98c1.46,.3,2.82,.92,4.07,1.87,1.24,.96,2.49,2.46,3.74,4.51,1.24,2.06,2.16,5.21,2.75,9.46,.58,4.26,.73,9.32,.44,15.18-.15,1.47-.37,2.94-.66,4.4,5.57,1.18,11.77-.22,18.59-4.18,6.82-3.96,12.65-9.09,17.49-15.4,.73-.88,1.68-1.39,2.86-1.54h0Zm-61.16,36.74c2.05,0,4.21-.95,6.49-2.86,2.27-1.9,4.14-4.47,5.61-7.7-9.54-5.28-14.52-12.46-14.96-21.56-2.94,2.79-4.95,6.53-6.05,11.22-1.1,4.7-1.07,8.8,.11,12.32,1.61,5.72,4.54,8.58,8.8,8.58h0Zm14.3-20.46c.29-3.52,.33-6.56,.11-9.13-.22-2.56-.48-4.65-.77-6.27-.3-1.61-.66-2.93-1.1-3.96-.44-1.02-.85-1.76-1.21-2.2-.37-.44-.63-.66-.77-.66h-.22c-.59,0-1.32,.48-2.2,1.43-.88,.96-1.54,2.24-1.98,3.85-.88,3.08-.74,6.24,.44,9.46,1.17,3.23,3.74,6.16,7.7,8.8v-1.32h0Z"></path><path class="cls-1" d="M792.96,235.32c1.1-.22,2.16-.03,3.19,.55,1.02,.59,1.68,1.47,1.98,2.64,.29,1.18,.07,2.2-.66,3.08-5.87,9.54-12.84,18.3-20.9,26.29-8.07,8-16.36,14.67-24.86,20.02-8.51,5.35-16.17,9.68-22.99,12.98-6.82,3.3-13.68,6.12-20.57,8.47-2.06,.73-3.67,.14-4.84-1.76-2.34,5.86-4.4,11.66-6.16,17.38-.58,1.9-1.98,2.86-4.18,2.86h-.66c-1.02-.15-1.87-.63-2.53-1.43-.66-.81-.99-1.73-.99-2.75,.15-3.38,3.71-20.83,10.67-52.36s13.97-62.33,21.01-92.4c0-.44,.07-.88,.22-1.32,2.49-10.56,4.54-19.06,6.16-25.52,4.98-20.24,10.74-37.51,17.27-51.81,6.52-14.3,12.13-21.89,16.83-22.77,2.49-.44,4.4,.3,5.72,2.2,3.22,4.26,1.39,15.55-5.5,33.88-6.9,18.34-17.68,40.7-32.34,67.1-7.92,33.3-15.4,66.22-22.44,98.78,4.1-8.5,8.06-15.4,11.88-20.68,11.44-15.98,20.53-22.95,27.28-20.9,4.4,1.32,6.67,5.21,6.82,11.66,0,3.08-.48,6.57-1.43,10.45-.96,3.89-2.53,8.18-4.73,12.87-2.2,4.7-4.84,9.17-7.92,13.42,22.88-13.49,40.26-29.84,52.14-49.06,.58-1.02,1.43-1.65,2.53-1.87h0Zm-87.23,65.89c5.28-1.91,10.23-4.73,14.85-8.47s8.43-7.81,11.44-12.21c3-4.4,5.42-8.69,7.26-12.87,1.83-4.18,3.11-8.1,3.85-11.77,1.02-5.13,1.02-8.43,0-9.9-.59,0-1.36,.26-2.31,.77-.96,.52-2.9,2.2-5.83,5.06-2.94,2.86-6.16,6.79-9.68,11.77-6.31,8.8-12.84,21.34-19.58,37.62h0Zm53.68-211.64c-7.92,11.74-15.4,30.88-22.44,57.42,12.76-25.81,20.24-44.95,22.44-57.42Z"></path><path class="cls-1" d="M858.62,235.32c1.17-.22,2.23,0,3.19,.66,.95,.66,1.5,1.58,1.65,2.75,.14,1.18-.08,2.2-.66,3.08-16.58,23.18-31.68,39.6-45.32,49.28-5.43,3.81-10.78,5.72-16.06,5.72-4.11,0-7.7-1.1-10.78-3.3-1.76-1.32-3.34-3.08-4.73-5.28-1.39-2.2-2.6-5.28-3.63-9.24-1.02-3.96-1.21-9.16-.55-15.62,.66-6.45,2.31-13.78,4.95-22v-.22c4.1-13.34,9.09-23.9,14.96-31.68,5.86-7.77,11.14-11.73,15.84-11.88,3.37-.14,5.57,1.32,6.6,4.4,1.61,4.26-.3,10.27-5.72,18.04-5.43,7.78-13.42,16.14-23.98,25.08-1.76,5.72-3.01,11-3.74,15.84-.74,4.84-.99,8.69-.77,11.55s.73,5.36,1.54,7.48c.8,2.13,1.54,3.63,2.2,4.51,.66,.88,1.35,1.61,2.09,2.2,4.4,3.22,10.04,2.34,16.94-2.64,12.9-9.09,27.28-24.78,43.12-47.08,.73-.88,1.68-1.43,2.86-1.65h0Zm-42.68-28.49c-5.14,3.23-10.2,10.2-15.18,20.9,8.5-8.5,13.56-15.47,15.18-20.9Z"></path><path class="cls-1" d="M944.75,235.1c1.1-.36,2.16-.29,3.19,.22,1.02,.52,1.76,1.32,2.2,2.42,.44,1.1,.36,2.17-.22,3.19-3.96,8.51-8.44,17.24-13.42,26.18-4.99,8.95-10.45,18.01-16.39,27.17s-11.85,16.64-17.71,22.44c-5.87,5.79-10.86,8.69-14.96,8.69-1.03,0-1.98-.22-2.86-.66-6.02-2.35-7.92-11.44-5.72-27.28,2.05-14.81,7.48-35.78,16.28-62.92-.15,0-.26,.04-.33,.11-.08,.08-.19,.11-.33,.11-3.23,2.2-5.91,3.89-8.03,5.06-2.13,1.18-4.99,2.5-8.58,3.96-3.6,1.47-7.01,2.13-10.23,1.98-3.23-.14-6.24-1.17-9.02-3.08-5.58-3.96-8.43-9.46-8.58-16.5-.14-7.04,2.49-14.74,7.92-23.1,3.37-5.28,7.44-9.9,12.21-13.86,4.76-3.96,8.83-4.84,12.21-2.64,2.05,1.18,3.26,3.08,3.63,5.72,.36,2.64-.92,7.74-3.85,15.29-2.94,7.56-7.85,17.42-14.74,29.59,4.54,.59,12.02-2.56,22.44-9.46,1.9-1.32,3.33-2.23,4.29-2.75,.95-.51,2.05-1.06,3.3-1.65,1.24-.58,2.31-.8,3.19-.66,.88,.15,1.76,.52,2.64,1.1,2.2,1.76,2.56,4.84,1.1,9.24-14.67,45.47-20.46,73.04-17.38,82.72,.29,.58,.51,1.02,.66,1.32,1.17,.14,2.97-.81,5.39-2.86,2.42-2.06,5.42-5.28,9.02-9.68,3.59-4.4,7.48-9.68,11.66-15.84s8.8-13.71,13.86-22.66c5.06-8.94,9.93-18.48,14.63-28.6,.58-1.17,1.43-1.94,2.53-2.31h0Zm-85.47-14.85c-1.32,5.14-1.03,9.24,.88,12.32,10.7-18.62,16.42-31.24,17.16-37.84-1.76,1.03-3.78,2.72-6.05,5.06-2.28,2.35-4.62,5.39-7.04,9.13s-4.07,7.52-4.95,11.33h0Z"></path></svg> 