<?xml version="1.0" encoding="UTF-8"?> <svg xmlns="http://www.w3.org/2000/svg" id="_Слой_1" data-name="Слой 1" viewBox="0 0 277.93 179.12"><defs><style> .cls-1 { fill: #1c1c1c; } </style></defs><path class="cls-1" d="M88.8,140.96c.64,0,1.18,.22,1.62,.66s.66,.98,.66,1.62c0,.4-.12,.78-.36,1.14-.24,.36-.54,.64-.9,.84-.36,.2-.74,.3-1.14,.3-2.88-.08-6.14,.38-9.78,1.38-3.64,1-7.78,2.62-12.42,4.86-4.64,2.24-8.48,4.18-11.52,5.82-3.04,1.64-7.24,3.94-12.6,6.9-6.08,3.44-10.64,5.98-13.68,7.62-3.04,1.64-6.48,3.22-10.32,4.74-3.84,1.52-7,2.28-9.48,2.28-2.16,0-3.96-.52-5.4-1.56-3.68-2.8-4.44-8.92-2.28-18.36,6-26.32,14.32-58.08,24.96-95.28,2.56-8.96,4.9-16.92,7.02-23.88,2.12-6.96,3.92-12.7,5.4-17.22,1.48-4.52,2.86-8.32,4.14-11.4,1.28-3.08,2.26-5.38,2.94-6.9,.68-1.52,1.38-2.64,2.1-3.36,.72-.72,1.24-1.1,1.56-1.14,.32-.04,.76-.02,1.32,.06,1.44,.16,2.32,1.28,2.64,3.36,.32,2.08,.28,5.28-.12,9.6-.08,.64-.36,1.16-.84,1.56-.48,.4-1.04,.58-1.68,.54-.64-.04-1.18-.3-1.62-.78-.44-.48-.62-1.04-.54-1.68,.16-1.44,.28-2.76,.36-3.96-4.16,9.52-10.56,29.52-19.2,60-10.24,36.08-18.2,66.6-23.88,91.56-1.76,7.44-1.6,11.96,.48,13.56,.56,.4,1.28,.64,2.16,.72,.88,.08,1.94-.04,3.18-.36,1.24-.32,2.46-.66,3.66-1.02,1.2-.36,2.72-.98,4.56-1.86,1.84-.88,3.4-1.64,4.68-2.28,1.28-.64,3.02-1.56,5.22-2.76,2.2-1.2,3.9-2.14,5.1-2.82,1.2-.68,2.96-1.66,5.28-2.94,4.48-2.56,7.9-4.48,10.26-5.76,2.36-1.28,5.64-2.98,9.84-5.1,4.2-2.12,7.7-3.72,10.5-4.8,2.8-1.08,5.86-2.02,9.18-2.82,3.32-.8,6.3-1.16,8.94-1.08Z"></path><path class="cls-1" d="M124.02,95.42c.6-.2,1.18-.16,1.74,.12,.56,.28,.94,.72,1.14,1.32,.2,.6,.18,1.18-.06,1.74-8.56,17.68-16.2,26.52-22.92,26.52-.4,0-.84-.04-1.32-.12-5.36-1.04-8.68-8.24-9.96-21.6-3.92,5.28-7.4,9.6-10.44,12.96-2.72,2.88-5.04,3.88-6.96,3-1.92-.72-2.84-2.8-2.76-6.24,0-2.88,.64-6.32,1.92-10.32,1.28-4,3.16-7.88,5.64-11.64,2.48-3.76,5.16-6.12,8.04-7.08,4.24-1.52,8.16-.12,11.76,4.2,.4,.48,.58,1.04,.54,1.68-.04,.64-.3,1.16-.78,1.56-.48,.4-1.04,.58-1.68,.54-.64-.04-1.16-.3-1.56-.78-2.8-3.36-5.64-4-8.52-1.92-3.28,2.32-6.02,6.5-8.22,12.54-2.2,6.04-3.06,10.34-2.58,12.9,.48-.4,1.04-.92,1.68-1.56,3.2-3.44,7.12-8.36,11.76-14.76,1.04-1.44,1.76-2.44,2.16-3,.64-.8,1.48-1.06,2.52-.78,1.04,.28,1.6,.98,1.68,2.1,.16,3.92,.48,7.4,.96,10.44,.48,3.04,.96,5.34,1.44,6.9s1.04,2.86,1.68,3.9c.64,1.04,1.14,1.7,1.5,1.98,.36,.28,.74,.42,1.14,.42,1.12,.24,2.54-.3,4.26-1.62,1.72-1.32,3.92-3.88,6.6-7.68,2.68-3.8,5.42-8.62,8.22-14.46,.32-.64,.78-1.06,1.38-1.26Z"></path><path class="cls-1" d="M172.08,22.04c2.08,2.08,1.04,9.44-3.12,22.08-.32,.96-.76,2.28-1.32,3.96-1.76,5.36-3.2,9.64-4.32,12.84-1.12,3.2-2.88,7.68-5.28,13.44-2.4,5.76-5,11.28-7.8,16.56-2.32,11.04-4.52,22.8-6.6,35.28-3.6,21.36-5.52,35.84-5.76,43.44,.64-.24,1.28-.24,1.92,0,.56,.32,.94,.78,1.14,1.38,.2,.6,.18,1.18-.06,1.74-1.44,3.04-2.88,4.56-4.32,4.56-.32,0-.64-.04-.96-.12-.88-.32-1.5-.9-1.86-1.74-.36-.84-.52-2.6-.48-5.28,.04-2.68,.38-6.62,1.02-11.82,.96-8.32,2.56-19.28,4.8-32.88,1.28-7.44,2.6-14.68,3.96-21.72-2.48,4-5.12,8-7.92,12-5.28,7.68-9.88,10.44-13.8,8.28-2.56-1.84-3.8-5.1-3.72-9.78,.08-4.68,1.24-9.42,3.48-14.22,2.64-5.6,5.76-9.72,9.36-12.36,3.6-2.64,6.8-3.54,9.6-2.7,2.8,.84,4.4,2.94,4.8,6.3,.4-.64,.76-1.28,1.08-1.92,4.24-20.08,8.5-36.22,12.78-48.42,4.28-12.2,7.78-18.74,10.5-19.62,1.12-.4,2.08-.16,2.88,.72Zm-40.68,91.08c3.76-5.44,7.2-10.88,10.32-16.32-1.2-.4-1.68-1.2-1.44-2.4,.32-2.96-.2-4.64-1.56-5.04h-.72c-1.68,0-3.74,1.1-6.18,3.3-2.44,2.2-4.62,5.34-6.54,9.42-1.28,2.64-2.14,5.34-2.58,8.1-.44,2.76-.54,5-.3,6.72,.24,1.72,.68,2.74,1.32,3.06,.24,.16,.62,.14,1.14-.06,.52-.2,1.38-.88,2.58-2.04,1.2-1.16,2.52-2.74,3.96-4.74Zm33.12-70.44c1.6-4.88,2.76-9.04,3.48-12.48-3.92,8.24-8.12,21.08-12.6,38.52,2.24-5.44,4.84-12.76,7.8-21.96,.56-1.76,1-3.12,1.32-4.08Z"></path><path class="cls-1" d="M191.82,94.64c.6-.16,1.18-.08,1.74,.24,.56,.32,.9,.8,1.02,1.44,.12,.64,.02,1.24-.3,1.8-2.24,3.52-4.94,7.18-8.1,10.98-3.16,3.8-6.72,7.22-10.68,10.26-3.96,3.04-7.3,4.56-10.02,4.56-.96,0-1.8-.16-2.52-.48-5.36-2.32-5.92-11.72-1.68-28.2,.16-.64,.52-1.12,1.08-1.44,.56-.32,1.14-.4,1.74-.24,.6,.16,1.06,.52,1.38,1.08,.32,.56,.4,1.12,.24,1.68-.96,3.84-1.66,7.22-2.1,10.14-.44,2.92-.64,5.14-.6,6.66,.04,1.52,.2,2.78,.48,3.78,.28,1,.52,1.6,.72,1.8,.2,.2,.38,.34,.54,.42,2.08,.88,5.86-1.2,11.34-6.24,5.48-5.04,10.22-10.8,14.22-17.28,.4-.48,.9-.8,1.5-.96Zm-26.58-9.36c-2.32-.16-3.04-1.12-2.16-2.88,.8-1.44,1.84-2.4,3.12-2.88,2-.64,3.2-.12,3.6,1.56,.4,1.6-.2,2.8-1.8,3.6-.8,.4-1.72,.6-2.76,.6Z"></path><path class="cls-1" d="M227.63,95.06c.64-.12,1.22,0,1.74,.36,.52,.36,.82,.86,.9,1.5,.08,.64-.04,1.2-.36,1.68-9.04,12.64-17.28,21.6-24.72,26.88-2.96,2.08-5.88,3.12-8.76,3.12-2.24,0-4.2-.6-5.88-1.8-.96-.72-1.82-1.68-2.58-2.88-.76-1.2-1.42-2.88-1.98-5.04-.56-2.16-.66-5-.3-8.52,.36-3.52,1.26-7.52,2.7-12v-.12c2.24-7.28,4.96-13.04,8.16-17.28,3.2-4.24,6.08-6.4,8.64-6.48,1.84-.08,3.04,.72,3.6,2.4,.88,2.32-.16,5.6-3.12,9.84-2.96,4.24-7.32,8.8-13.08,13.68-.96,3.12-1.64,6-2.04,8.64-.4,2.64-.54,4.74-.42,6.3s.4,2.92,.84,4.08c.44,1.16,.84,1.98,1.2,2.46s.74,.88,1.14,1.2c2.4,1.76,5.48,1.28,9.24-1.44,7.04-4.96,14.88-13.52,23.52-25.68,.4-.48,.92-.78,1.56-.9Zm-23.28-15.54c-2.8,1.76-5.56,5.56-8.28,11.4,4.64-4.64,7.4-8.44,8.28-11.4Z"></path><path class="cls-1" d="M275.39,94.16c.64-.08,1.2,.1,1.68,.54,.48,.44,.76,.98,.84,1.62,.08,.64-.12,1.2-.6,1.68-15.52,18.08-24.4,28.52-26.64,31.32-1.36,1.76-2.68,3.48-3.96,5.16,1.12,4.56,1.2,8.96,.24,13.2-.96,4.24-2.32,7.88-4.08,10.92-1.76,3.04-3.84,5.52-6.24,7.44-2.24,1.92-4.32,2.88-6.24,2.88-1.2,0-2.2-.4-3-1.2-4.24-4.08,.52-15.48,14.28-34.2-.88-3.04-2.28-6-4.2-8.88-4-6-6.96-11-8.88-15-1.92-4-2.8-7.64-2.64-10.92,.16-3.2,1.02-6.08,2.58-8.64,1.56-2.56,3.66-4.64,6.3-6.24,2.24-1.36,4.6-2.16,7.08-2.4,2.48-.24,4.76,.12,6.84,1.08,.56,.32,.94,.78,1.14,1.38,.2,.6,.16,1.18-.12,1.74-.28,.56-.72,.94-1.32,1.14-.6,.2-1.18,.18-1.74-.06-2.88-1.36-6.04-1-9.48,1.08-4.16,2.48-6.36,6.2-6.6,11.16-.16,2.64,.68,5.78,2.52,9.42,1.84,3.64,4.56,8.18,8.16,13.62,1.52,2.32,2.76,4.68,3.72,7.08,.64-.8,1.32-1.68,2.04-2.64,2.24-2.8,11.16-13.28,26.76-31.44,.4-.48,.92-.76,1.56-.84Zm-37.32,63.36c3.52-5.36,5.08-11.24,4.68-17.64-3.36,4.8-6.06,9.08-8.1,12.84-2.04,3.76-3.28,6.46-3.72,8.1-.44,1.64-.58,2.78-.42,3.42,.72-.08,1.8-.7,3.24-1.86,1.44-1.16,2.88-2.78,4.32-4.86Z"></path></svg> 