<?xml version="1.0" encoding="UTF-8"?> <svg xmlns="http://www.w3.org/2000/svg" id="OBJECTS" viewBox="0 0 89.89 63.37"><defs><style> .cls-1 { fill: #1c1c1c; } </style></defs><g><path class="cls-1" d="M.85,.58h1.9V3.12h-.45V.99H1.3V3.12h-.45s0-2.54,0-2.54Z"></path><path class="cls-1" d="M4.92,.58h.45V3.12h-.45v-1.06h-1.06v1.06h-.45V.58h.45V1.66h1.06V.58Z"></path></g><g><path class="cls-1" d="M17.12,2.4c0,.36-.25,.72-.78,.72h-1.07V.58h.99c.44,0,.72,.27,.72,.65,0,.2-.07,.44-.33,.53,.31,.06,.47,.36,.47,.64Zm-1.4-1.42v.62h.52c.19,0,.29-.13,.29-.31s-.1-.31-.29-.31c0,0-.52,0-.52,0Zm.55,1.74c.26,0,.4-.17,.4-.37s-.12-.37-.39-.37h-.56v.74h.55Z"></path><path class="cls-1" d="M19.22,.58v.4h-.73V3.12h-.45V.98h-.73v-.4s1.91,0,1.91,0Z"></path></g><g><path class="cls-1" d="M28.79,1.85c0-.72,.58-1.3,1.29-1.3,.42,0,.78,.2,1.01,.5l-.34,.26c-.16-.2-.38-.33-.66-.33-.48,0-.85,.39-.85,.88s.36,.88,.85,.88c.28,0,.51-.13,.66-.33l.34,.25c-.23,.3-.59,.5-1.01,.5-.72,0-1.29-.58-1.29-1.3h0Z"></path><path class="cls-1" d="M32.56,.58c.56,0,.8,.41,.8,.82s-.24,.82-.8,.82h-.58v.91h-.45V.58h1.03Zm-.02,1.23c.27,0,.37-.2,.37-.41s-.1-.41-.36-.41h-.57v.82h.56Z"></path></g><g><path class="cls-1" d="M44.39,.58h.45V3.12h-.45v-.91c-.2,.04-.4,.06-.59,.06-.56,0-.85-.3-.85-.96V.58h.45v.72c0,.42,.16,.55,.49,.55,.16,0,.34,0,.5-.05,0,0,0-1.22,0-1.22Z"></path><path class="cls-1" d="M47.15,.58v.4h-.73V3.12h-.45V.98h-.73v-.4s1.91,0,1.91,0Z"></path></g><g><path class="cls-1" d="M56.96,.58h1.9V3.12h-.45V.99h-1V3.12h-.45V.58Z"></path><path class="cls-1" d="M61.17,.58v.4h-.73V3.12h-.45V.98h-.73v-.4s1.91,0,1.91,0Z"></path></g><g><path class="cls-1" d="M70.56,1.85c0-.72,.58-1.3,1.29-1.3,.42,0,.78,.2,1.01,.5l-.34,.26c-.16-.2-.38-.33-.66-.33-.48,0-.85,.39-.85,.88s.36,.88,.85,.88c.28,0,.51-.13,.66-.33l.34,.25c-.23,.3-.59,.5-1.01,.5-.72,0-1.29-.58-1.29-1.3h0Z"></path><path class="cls-1" d="M74.28,1.51c.59,0,.83,.39,.83,.8s-.24,.82-.81,.82h-1V.58h1.53v.4h-1.08v.52h.53Zm-.01,1.22c.25,0,.39-.18,.39-.41s-.13-.41-.45-.41h-.45v.83h.51Z"></path></g><g><path class="cls-1" d="M86.48,2.4c0,.36-.25,.72-.78,.72h-1.07V.58h.99c.44,0,.72,.27,.72,.65,0,.2-.07,.44-.33,.53,.31,.06,.47,.36,.47,.64Zm-1.4-1.42v.62h.52c.19,0,.29-.13,.29-.31s-.1-.31-.29-.31c0,0-.52,0-.52,0Zm.55,1.74c.26,0,.4-.17,.4-.37s-.12-.37-.39-.37h-.56v.74s.55,0,.55,0Z"></path><path class="cls-1" d="M86.81,1.85c0-.72,.58-1.3,1.29-1.3,.42,0,.78,.2,1.01,.5l-.34,.26c-.16-.2-.38-.33-.66-.33-.48,0-.85,.39-.85,.88s.36,.88,.85,.88c.28,0,.51-.13,.66-.33l.34,.25c-.23,.3-.59,.5-1.01,.5-.72,0-1.29-.58-1.29-1.3h0Z"></path></g><path class="cls-1" d="M87.28,11.73h.04v3.69h-.64v-2.81l-.82,.32v-.6l1.41-.61h0Z"></path><path class="cls-1" d="M2.93,24.11h1.36v.61H1.9v-.33l1.4-1.69c.18-.22,.3-.45,.3-.59,0-.29-.22-.48-.55-.48-.35,0-.56,.22-.6,.54l-.58-.11c.08-.61,.51-1.03,1.2-1.03s1.18,.44,1.18,1.1c0,.32-.17,.66-.41,.93l-.91,1.06h0Z"></path><path class="cls-1" d="M18.25,23.65c0,.67-.54,1.11-1.31,1.11-.52,0-.95-.25-1.19-.68l.47-.34c.17,.27,.41,.43,.7,.43,.4,0,.69-.22,.69-.55,0-.35-.28-.58-.69-.58h-.36v-.51h.26c.39,0,.63-.22,.62-.5-.01-.25-.21-.42-.51-.42-.24,0-.48,.12-.62,.32l-.38-.4c.23-.31,.61-.52,1.06-.52,.64,0,1.11,.38,1.1,.99,0,.32-.18,.6-.47,.74,.38,.13,.64,.47,.64,.9h-.01Z"></path><path class="cls-1" d="M32.41,23.41v.58h-.55v.72h-.65v-.72h-1.79v-.17l2.15-2.76h.29v2.34h.55Zm-2.02,.01h.82v-1.05l-.82,1.05Z"></path><path class="cls-1" d="M46.27,23.49c0,.79-.62,1.28-1.37,1.28-.57,0-1.09-.33-1.33-.78l.51-.32c.13,.28,.45,.5,.78,.5,.44,0,.75-.27,.75-.67s-.31-.66-.72-.66c-.29,0-.59,.13-.84,.33l-.38-.27,.32-1.83h2.03v.6h-1.49l-.17,.85c.18-.13,.45-.23,.72-.23,.7,0,1.19,.5,1.19,1.2Z"></path><path class="cls-1" d="M60.24,23.55c0,.67-.52,1.22-1.33,1.22-.87,0-1.4-.65-1.4-1.76,0-1,.46-1.99,1.53-1.99,.46,0,.92,.2,1.16,.73l-.54,.27c-.13-.28-.37-.4-.62-.4-.5,0-.85,.48-.86,1.11,.17-.21,.45-.37,.82-.37,.74,0,1.24,.55,1.24,1.19Zm-.66,0c0-.34-.27-.61-.65-.62-.4,0-.7,.25-.71,.6,0,.36,.28,.63,.67,.63s.69-.26,.69-.62h0Z"></path><path class="cls-1" d="M71.62,21.07h2.58v.06l-1.76,3.59h-.75l1.5-3.04h-1.58v-.61h.01Z"></path><path class="cls-1" d="M88.16,23.62c0,.69-.61,1.15-1.4,1.15s-1.4-.46-1.4-1.14c0-.47,.28-.85,.69-.99-.23-.12-.4-.37-.4-.7,0-.54,.47-.92,1.11-.92s1.11,.38,1.11,.92c0,.32-.17,.58-.4,.7,.41,.13,.69,.52,.69,.98Zm-.67-.06c0-.36-.32-.63-.72-.63s-.73,.27-.73,.63,.31,.61,.73,.61,.72-.26,.72-.61Zm-1.19-1.55c0,.23,.21,.42,.47,.42s.47-.18,.47-.42-.2-.43-.47-.43-.47,.19-.47,.43Z"></path><path class="cls-1" d="M4.47,32.08c0,1-.46,1.99-1.53,1.99-.45,0-.92-.2-1.15-.73l.54-.28c.12,.28,.37,.41,.61,.41,.49,0,.85-.47,.86-1.1-.18,.21-.45,.36-.82,.36-.74,0-1.24-.55-1.24-1.18,0-.67,.52-1.22,1.33-1.22,.87,0,1.4,.73,1.4,1.76h0Zm-.71-.53c0-.36-.28-.63-.67-.64-.4,0-.69,.26-.69,.62s.27,.6,.65,.61c.4,0,.7-.25,.71-.6h0Z"></path><g><path class="cls-1" d="M15.92,30.32h.04v3.69h-.64v-2.81l-.82,.32v-.6l1.41-.61h.01Z"></path><path class="cls-1" d="M16.76,32.19c0-1.04,.29-1.88,1.35-1.88s1.34,.83,1.34,1.88-.28,1.87-1.34,1.87-1.35-.83-1.35-1.87Zm2.03,0c0-.7-.14-1.28-.69-1.28s-.7,.57-.7,1.28,.15,1.27,.7,1.27,.69-.57,.69-1.27Z"></path></g><g><path class="cls-1" d="M30.46,30.32h.04v3.69h-.64v-2.81l-.82,.32v-.6l1.41-.61h0Z"></path><path class="cls-1" d="M32.56,30.32h.04v3.69h-.64v-2.81l-.82,.32v-.6l1.41-.61h0Z"></path></g><g><path class="cls-1" d="M43.97,30.32h.04v3.69h-.64v-2.81l-.82,.32v-.6l1.41-.61h0Z"></path><path class="cls-1" d="M45.81,33.4h1.36v.61h-2.4v-.33l1.4-1.69c.18-.22,.3-.45,.3-.59,0-.29-.22-.48-.55-.48-.35,0-.56,.22-.6,.54l-.58-.11c.08-.61,.51-1.03,1.2-1.03s1.18,.44,1.18,1.1c0,.32-.17,.66-.41,.93l-.91,1.06h0Z"></path></g><g><path class="cls-1" d="M57.93,30.32h.04v3.69h-.64v-2.81l-.82,.32v-.6l1.41-.61h0Z"></path><path class="cls-1" d="M61.12,32.95c0,.67-.54,1.11-1.31,1.11-.52,0-.95-.25-1.19-.68l.47-.34c.17,.27,.41,.43,.7,.43,.4,0,.69-.22,.69-.55,0-.35-.28-.58-.69-.58h-.36v-.51h.26c.39,0,.63-.22,.62-.5,0-.25-.21-.42-.51-.42-.24,0-.48,.12-.62,.32l-.38-.4c.23-.31,.61-.52,1.06-.52,.64,0,1.11,.38,1.1,.99,0,.32-.18,.6-.47,.74,.38,.13,.64,.47,.64,.9h0Z"></path></g><g><path class="cls-1" d="M71.7,30.32h.04v3.69h-.64v-2.81l-.82,.32v-.6l1.41-.61h0Z"></path><path class="cls-1" d="M75.28,32.71v.58h-.55v.72h-.65v-.72h-1.79v-.17l2.15-2.76h.29v2.34h.55Zm-2.02,0h.82v-1.05l-.82,1.05Z"></path></g><g><path class="cls-1" d="M85.7,30.32h.04v3.69h-.64v-2.81l-.82,.32v-.6l1.41-.61h0Z"></path><path class="cls-1" d="M89.15,32.78c0,.79-.62,1.28-1.37,1.28-.57,0-1.09-.33-1.33-.78l.51-.32c.13,.28,.45,.5,.78,.5,.44,0,.75-.27,.75-.67s-.31-.66-.72-.66c-.29,0-.59,.13-.84,.33l-.38-.27,.32-1.83h2.03v.6h-1.49l-.17,.85c.18-.13,.45-.23,.72-.23,.7,0,1.19,.5,1.19,1.2Z"></path></g><g><path class="cls-1" d="M1.98,39.61h.04v3.69h-.64v-2.81l-.82,.32v-.6l1.41-.61h0Z"></path><path class="cls-1" d="M5.53,42.14c0,.67-.52,1.22-1.33,1.22-.87,0-1.4-.65-1.4-1.76,0-1,.46-1.99,1.53-1.99,.46,0,.92,.2,1.16,.73l-.54,.27c-.13-.28-.37-.4-.62-.4-.5,0-.85,.48-.86,1.11,.17-.21,.45-.37,.82-.37,.74,0,1.24,.55,1.24,1.19Zm-.66,0c0-.34-.27-.61-.65-.62-.4,0-.7,.25-.71,.6,0,.36,.28,.63,.67,.63s.69-.26,.69-.62h0Z"></path></g><g><path class="cls-1" d="M16.13,39.61h.04v3.69h-.64v-2.81l-.82,.32v-.6l1.41-.61h0Z"></path><path class="cls-1" d="M16.91,39.66h2.58v.06l-1.76,3.59h-.75l1.5-3.04h-1.58v-.61h.01Z"></path></g><g><path class="cls-1" d="M29.86,39.61h.04v3.69h-.64v-2.81l-.82,.32v-.6l1.41-.61h0Z"></path><path class="cls-1" d="M33.45,42.21c0,.69-.61,1.15-1.4,1.15s-1.4-.46-1.4-1.14c0-.47,.28-.85,.69-.99-.23-.12-.4-.37-.4-.7,0-.54,.47-.92,1.11-.92s1.11,.38,1.11,.92c0,.32-.17,.58-.4,.7,.41,.13,.69,.52,.69,.98Zm-.67-.06c0-.36-.32-.63-.72-.63s-.73,.27-.73,.63,.31,.61,.73,.61,.72-.26,.72-.61Zm-1.19-1.55c0,.23,.21,.42,.47,.42s.47-.18,.47-.42-.2-.43-.47-.43-.47,.19-.47,.43Z"></path></g><g><path class="cls-1" d="M43.81,39.61h.04v3.69h-.64v-2.81l-.82,.32v-.6l1.41-.61h0Z"></path><path class="cls-1" d="M47.35,41.37c0,1-.46,1.99-1.53,1.99-.45,0-.92-.2-1.15-.73l.54-.28c.12,.28,.37,.41,.61,.41,.49,0,.85-.47,.86-1.1-.18,.21-.45,.36-.82,.36-.74,0-1.24-.55-1.24-1.18,0-.67,.52-1.22,1.33-1.22,.87,0,1.4,.73,1.4,1.76h0Zm-.71-.53c0-.36-.28-.63-.67-.64-.4,0-.69,.26-.69,.62s.27,.6,.65,.61c.4,0,.7-.25,.71-.6h0Z"></path></g><g><path class="cls-1" d="M57.06,42.7h1.36v.61h-2.4v-.33l1.4-1.69c.18-.22,.3-.45,.3-.59,0-.29-.22-.48-.55-.48-.35,0-.56,.22-.6,.54l-.58-.11c.08-.61,.51-1.03,1.2-1.03s1.18,.44,1.18,1.1c0,.32-.17,.66-.41,.93l-.91,1.06h0Z"></path><path class="cls-1" d="M59.01,41.49c0-1.04,.29-1.88,1.35-1.88s1.34,.83,1.34,1.88-.28,1.87-1.34,1.87-1.35-.83-1.35-1.87Zm2.03,0c0-.7-.14-1.28-.69-1.28s-.7,.57-.7,1.28,.15,1.27,.7,1.27,.69-.57,.69-1.27Z"></path></g><g><path class="cls-1" d="M71.59,42.7h1.36v.61h-2.4v-.33l1.4-1.69c.18-.22,.3-.45,.3-.59,0-.29-.22-.48-.55-.48-.35,0-.56,.22-.6,.54l-.58-.11c.08-.61,.51-1.03,1.2-1.03s1.18,.44,1.18,1.1c0,.32-.17,.66-.41,.93l-.91,1.06h.01Z"></path><path class="cls-1" d="M74.82,39.61h.04v3.69h-.64v-2.81l-.82,.32v-.6l1.41-.61h0Z"></path></g><g><path class="cls-1" d="M85.11,42.7h1.36v.61h-2.4v-.33l1.4-1.69c.18-.22,.3-.45,.3-.59,0-.29-.22-.48-.55-.48-.35,0-.56,.22-.6,.54l-.58-.11c.08-.61,.51-1.03,1.2-1.03s1.18,.44,1.18,1.1c0,.32-.17,.66-.41,.93l-.91,1.06h.01Z"></path><path class="cls-1" d="M88.07,42.7h1.36v.61h-2.4v-.33l1.4-1.69c.18-.22,.3-.45,.3-.59,0-.29-.22-.48-.55-.48-.35,0-.56,.22-.6,.54l-.58-.11c.08-.61,.51-1.03,1.2-1.03s1.18,.44,1.18,1.1c0,.32-.17,.66-.41,.93l-.91,1.06h.01Z"></path></g><g><path class="cls-1" d="M1.47,51.99h1.36v.61H.44v-.33l1.4-1.69c.18-.22,.3-.45,.3-.59,0-.29-.22-.48-.55-.48-.35,0-.56,.22-.6,.54l-.58-.11c.08-.61,.51-1.03,1.2-1.03s1.18,.44,1.18,1.1c0,.32-.17,.66-.41,.93l-.91,1.06h0Z"></path><path class="cls-1" d="M5.79,51.54c0,.67-.54,1.11-1.31,1.11-.52,0-.95-.25-1.19-.68l.47-.34c.17,.27,.41,.43,.7,.43,.4,0,.69-.22,.69-.55,0-.35-.28-.58-.69-.58h-.36v-.51h.26c.39,0,.63-.22,.62-.5-.01-.25-.21-.42-.51-.42-.24,0-.48,.12-.62,.32l-.38-.4c.23-.31,.61-.52,1.06-.52,.64,0,1.11,.38,1.1,.99,0,.32-.18,.6-.47,.74,.38,.13,.64,.47,.64,.9h0Z"></path></g><g><path class="cls-1" d="M15.24,51.99h1.36v.61h-2.4v-.33l1.4-1.69c.18-.22,.3-.45,.3-.59,0-.29-.22-.48-.55-.48-.35,0-.56,.22-.6,.54l-.58-.11c.08-.61,.51-1.03,1.2-1.03s1.18,.44,1.18,1.1c0,.32-.17,.66-.41,.93l-.91,1.06h.01Z"></path><path class="cls-1" d="M19.95,51.3v.58h-.55v.72h-.65v-.72h-1.79v-.17l2.15-2.76h.29v2.34h.55Zm-2.02,0h.82v-1.05l-.82,1.05Z"></path></g><g><path class="cls-1" d="M29.24,51.99h1.36v.61h-2.4v-.33l1.4-1.69c.18-.22,.3-.45,.3-.59,0-.29-.22-.48-.55-.48-.35,0-.56,.22-.6,.54l-.58-.11c.08-.61,.51-1.03,1.2-1.03s1.18,.44,1.18,1.1c0,.32-.17,.66-.41,.93l-.91,1.06h0Z"></path><path class="cls-1" d="M33.81,51.37c0,.79-.62,1.28-1.37,1.28-.57,0-1.09-.33-1.33-.78l.51-.32c.13,.28,.45,.5,.78,.5,.44,0,.75-.27,.75-.67s-.31-.66-.72-.66c-.29,0-.59,.13-.84,.33l-.38-.27,.32-1.83h2.03v.6h-1.49l-.17,.85c.18-.13,.45-.23,.72-.23,.7,0,1.19,.5,1.19,1.2Z"></path></g><g><path class="cls-1" d="M43.12,51.99h1.36v.61h-2.4v-.33l1.4-1.69c.18-.22,.3-.45,.3-.59,0-.29-.22-.48-.55-.48-.35,0-.56,.22-.6,.54l-.58-.11c.08-.61,.51-1.03,1.2-1.03s1.18,.44,1.18,1.1c0,.32-.17,.66-.41,.93l-.91,1.06h0Z"></path><path class="cls-1" d="M47.78,51.44c0,.67-.52,1.22-1.33,1.22-.87,0-1.4-.65-1.4-1.76,0-1,.46-1.99,1.53-1.99,.46,0,.92,.2,1.16,.73l-.54,.27c-.13-.28-.37-.4-.62-.4-.5,0-.85,.48-.86,1.11,.17-.21,.45-.37,.82-.37,.74,0,1.24,.55,1.24,1.19Zm-.66,0c0-.34-.27-.61-.65-.62-.4,0-.7,.25-.71,.6,0,.36,.28,.63,.67,.63s.69-.26,.69-.62h0Z"></path></g><g><path class="cls-1" d="M57.26,51.99h1.36v.61h-2.4v-.33l1.4-1.69c.18-.22,.3-.45,.3-.59,0-.29-.22-.48-.55-.48-.35,0-.56,.22-.6,.54l-.58-.11c.08-.61,.51-1.03,1.2-1.03s1.18,.44,1.18,1.1c0,.32-.17,.66-.41,.93l-.91,1.06h0Z"></path><path class="cls-1" d="M59.16,48.95h2.58v.06l-1.76,3.59h-.75l1.5-3.04h-1.58v-.61h.01Z"></path></g><g><path class="cls-1" d="M71,51.99h1.36v.61h-2.4v-.33l1.4-1.69c.18-.22,.3-.45,.3-.59,0-.29-.22-.48-.55-.48-.35,0-.56,.22-.6,.54l-.58-.11c.08-.61,.51-1.03,1.2-1.03s1.18,.44,1.18,1.1c0,.32-.17,.66-.41,.93l-.91,1.06h.01Z"></path><path class="cls-1" d="M75.7,51.51c0,.69-.61,1.15-1.4,1.15s-1.4-.46-1.4-1.14c0-.47,.28-.85,.69-.99-.23-.12-.4-.37-.4-.7,0-.54,.47-.92,1.11-.92s1.11,.38,1.11,.92c0,.32-.17,.58-.4,.7,.41,.13,.69,.52,.69,.98Zm-.67-.06c0-.36-.32-.63-.72-.63s-.73,.27-.73,.63,.31,.61,.73,.61,.72-.26,.72-.61Zm-1.19-1.55c0,.23,.21,.42,.47,.42s.47-.18,.47-.42-.2-.43-.47-.43-.47,.19-.47,.43Z"></path></g><g><path class="cls-1" d="M84.94,51.99h1.36v.61h-2.4v-.33l1.4-1.69c.18-.22,.3-.45,.3-.59,0-.29-.22-.48-.55-.48-.35,0-.56,.22-.6,.54l-.58-.11c.08-.61,.51-1.03,1.2-1.03s1.18,.44,1.18,1.1c0,.32-.17,.66-.41,.93l-.91,1.06h.01Z"></path><path class="cls-1" d="M89.61,50.67c0,1-.46,1.99-1.53,1.99-.45,0-.92-.2-1.15-.73l.54-.28c.12,.28,.37,.41,.61,.41,.49,0,.85-.47,.86-1.1-.18,.21-.45,.36-.82,.36-.74,0-1.24-.55-1.24-1.18,0-.67,.52-1.22,1.33-1.22,.87,0,1.4,.73,1.4,1.76h0Zm-.71-.53c0-.36-.28-.63-.67-.64-.4,0-.69,.26-.69,.62s.27,.6,.65,.61c.4,0,.7-.25,.71-.6h0Z"></path></g><g><path class="cls-1" d="M2.66,60.83c0,.67-.54,1.11-1.31,1.11-.52,0-.95-.25-1.19-.68l.47-.34c.17,.27,.41,.43,.7,.43,.4,0,.69-.22,.69-.55,0-.35-.28-.58-.69-.58h-.36v-.51h.26c.39,0,.63-.22,.62-.5,0-.25-.21-.42-.51-.42-.24,0-.48,.12-.62,.32l-.38-.4c.23-.31,.61-.52,1.06-.52,.64,0,1.11,.38,1.1,.99,0,.32-.18,.6-.47,.74,.38,.13,.64,.47,.64,.9h0Z"></path><path class="cls-1" d="M3.23,60.08c0-1.04,.29-1.88,1.35-1.88s1.34,.83,1.34,1.88-.28,1.87-1.34,1.87-1.35-.83-1.35-1.87Zm2.03,0c0-.7-.14-1.28-.69-1.28s-.7,.57-.7,1.28,.15,1.27,.7,1.27,.69-.57,.69-1.27Z"></path></g><g><path class="cls-1" d="M17.2,60.83c0,.67-.54,1.11-1.31,1.11-.52,0-.95-.25-1.19-.68l.47-.34c.17,.27,.41,.43,.7,.43,.4,0,.69-.22,.69-.55,0-.35-.28-.58-.69-.58h-.36v-.51h.26c.39,0,.63-.22,.62-.5-.01-.25-.21-.42-.51-.42-.24,0-.48,.12-.62,.32l-.38-.4c.23-.31,.61-.52,1.06-.52,.64,0,1.11,.38,1.1,.99,0,.32-.18,.6-.47,.74,.38,.13,.64,.47,.64,.9h-.01Z"></path><path class="cls-1" d="M19.03,58.2h.04v3.69h-.64v-2.81l-.82,.32v-.6l1.41-.61h0Z"></path></g></svg> 